<?xml version="1.0" encoding="UTF-8"?>
<!DOCTYPE svg PUBLIC "-//W3C//DTD SVG 1.1//EN" "http://www.w3.org/Graphics/SVG/1.1/DTD/svg11.dtd">
<!-- Creator: CorelDRAW 2021 (64-Bit) -->
<svg xmlns="http://www.w3.org/2000/svg" xml:space="preserve" width="16.9333mm" height="8.4474mm" version="1.1" style="shape-rendering:geometricPrecision; text-rendering:geometricPrecision; image-rendering:optimizeQuality; fill-rule:evenodd; clip-rule:evenodd"
viewBox="0 0 970.08 483.94"
 xmlns:xlink="http://www.w3.org/1999/xlink"
 xmlns:xodm="http://www.corel.com/coreldraw/odm/2003">
 <defs>
  <style type="text/css">
   <![CDATA[
    .fil0 {fill:white}
    .fil1 {fill:white;fill-rule:nonzero}
   ]]>
  </style>
 </defs>
 <g id="Capa_x0020_1">
  <metadata id="CorelCorpID_0Corel-Layer"/>
  <path class="fil0" d="M36.34 187.8c11.11,0 20.11,9.01 20.11,20.12 0,11.11 -9.01,20.11 -20.11,20.11 -11.11,0 -20.12,-9.01 -20.12,-20.11 0,-11.11 9.01,-20.12 20.12,-20.12zm222.52 10l8.54 -7.92 14.02 13.53 -14.76 14.01 -195.25 0c-4.17,15.46 -18.29,26.84 -35.07,26.84 -20.07,0 -36.34,-16.27 -36.34,-36.33 0,-20.07 16.27,-36.34 36.34,-36.34 16.55,0 30.52,11.07 34.9,26.22l187.62 0zm-148.02 -60.72c8.15,0 14.75,6.61 14.75,14.76 0,8.15 -6.61,14.75 -14.75,14.75 -8.15,0 -14.76,-6.61 -14.76,-14.75 0,-8.15 6.61,-14.76 14.76,-14.76zm145.83 6.47l60.96 60.47 -13.9 13.9 -55.6 -57.07 -112.54 0c-3.68,10.11 -13.38,17.32 -24.75,17.32 -14.55,0 -26.34,-11.79 -26.34,-26.34 0,-14.55 11.79,-26.34 26.34,-26.34 11.65,0 21.53,7.57 25.01,18.06l120.82 0zm-77.61 -50.49c6.36,0 11.53,5.16 11.53,11.52 0,6.36 -5.16,11.53 -11.53,11.53 -6.36,0 -11.52,-5.16 -11.52,-11.53 0,-6.36 5.16,-11.52 11.52,-11.52zm95.9 2.44l37.79 38.65 -13.41 13.9 -32.92 -34.35 -68.27 0c-3.4,7.12 -10.67,12.04 -19.09,12.04 -11.68,0 -21.16,-9.47 -21.16,-21.16 0,-11.68 9.48,-21.15 21.16,-21.15 8.43,0 15.71,4.93 19.11,12.07l76.79 0zm-136.8 160.34c15.49,0 28.04,12.56 28.04,28.04 0,15.49 -12.56,28.04 -28.04,28.04 -15.49,0 -28.04,-12.55 -28.04,-28.04 0,-15.49 12.55,-28.04 28.04,-28.04zm234.21 -64.31l-32.42 0 -81.66 83.03 -70.26 0c-4.38,-23.56 -25.04,-41.4 -49.86,-41.4 -28.01,0 -50.72,22.71 -50.72,50.72 0,28.01 22.71,50.72 50.72,50.72 24.62,0 45.14,-17.54 49.75,-40.81l78.22 0 82.32 -82.67 25.44 0c-0.79,-6.39 -1.3,-12.96 -1.53,-19.6zm5.24 -56.69l-27.39 0 -46.21 46.16 -13.39 -14.75 49.53 -50.57 43.76 0c-2.49,5.68 -4.59,12.15 -6.3,19.15zm-5.36 45.63l-40.53 0 -8 -9.23 12.27 -14.37 5.07 3.55 32.3 0c-0.65,6.57 -1.03,13.3 -1.11,20.06zm11.62 69.79l-46.75 0 -8.67 -9.37 13.82 -13.51 3.51 4.35 31.89 0c1.67,6.72 3.74,12.97 6.2,18.53z"/>
  <path class="fil0" d="M489.56 4.62l0 22.96c-5.91,0.57 -11.72,1.47 -17.41,2.69l-8.07 -22.17c-0.87,-2.39 -3.54,-3.64 -5.93,-2.77l-19.63 7.14c-2.39,0.87 -3.63,3.54 -2.76,5.93l7.65 21.02c-5.43,2.34 -10.7,4.97 -15.78,7.89l-15.53 -18.51c-1.64,-1.95 -4.57,-2.21 -6.52,-0.57l-15.99 13.42c-1.95,1.64 -2.21,4.57 -0.57,6.52l14 16.68c-5.29,4.61 -10.26,9.57 -14.88,14.85l-21.19 -12.24c-2.2,-1.27 -5.05,-0.51 -6.32,1.7l-10.44 18.09c-1.27,2.2 -0.51,5.05 1.69,6.32l18.61 10.74c-13.16,22.77 -20.7,49.19 -20.7,77.38 0,28.74 7.84,55.64 21.48,78.7l-19.4 11.2c-2.2,1.27 -2.96,4.11 -1.69,6.32l10.44 18.09c1.27,2.2 4.12,2.96 6.32,1.69l22.23 -12.83c4.58,5.12 9.49,9.93 14.71,14.41l-14.87 17.72c-1.63,1.95 -1.37,4.88 0.57,6.51l15.99 13.42c1.95,1.64 4.88,1.38 6.52,-0.57l16.55 -19.72c4.94,2.79 10.05,5.32 15.32,7.56l-8.21 22.56c-0.87,2.39 0.37,5.06 2.76,5.92l19.63 7.14c2.39,0.87 5.06,-0.37 5.93,-2.76l8.67 -23.82c5.5,1.15 11.11,2.01 16.81,2.56l0 24.74c0,2.54 2.08,4.63 4.62,4.63l20.89 0c2.54,0 4.62,-2.09 4.62,-4.63l0 -24.74c6.7,-0.65 13.27,-1.72 19.7,-3.19l7.97 21.9c0.87,2.39 3.54,3.64 5.93,2.77l19.63 -7.14c2.39,-0.87 3.63,-3.53 2.76,-5.93l-7.71 -21.18c5.35,-2.4 10.54,-5.1 15.54,-8.07l15.82 18.86c1.64,1.95 4.57,2.21 6.52,0.57l15.99 -13.42c1.95,-1.63 2.21,-4.57 0.57,-6.51l-14.56 -17.35c5.13,-4.59 9.96,-9.53 14.44,-14.76l22.2 12.82c2.2,1.27 5.05,0.51 6.32,-1.7l10.44 -18.08c1.27,-2.21 0.51,-5.05 -1.69,-6.32l-19.93 -11.51 -37.92 0c-22.55,28.82 -57.66,47.35 -97.09,47.35 -68.04,0 -123.19,-55.16 -123.19,-123.19 0,-68.04 55.15,-123.2 123.19,-123.2 39.17,0 74.06,18.28 96.62,46.77l38.06 0 20.26 -11.69c2.2,-1.27 2.96,-4.12 1.69,-6.32l-10.44 -18.09c-1.27,-2.21 -4.12,-2.97 -6.32,-1.7l-22.64 13.07c-4.46,-5.17 -9.27,-10.03 -14.37,-14.57l14.93 -17.79c1.63,-1.95 1.38,-4.88 -0.57,-6.52l-15.99 -13.42c-1.95,-1.63 -4.88,-1.37 -6.52,0.57l-16.25 19.37c-4.95,-2.92 -10.08,-5.57 -15.36,-7.93l7.95 -21.84c0.87,-2.39 -0.37,-5.06 -2.76,-5.93l-19.63 -7.14c-2.39,-0.87 -5.06,0.38 -5.93,2.77l-8.23 22.61c-6.34,-1.44 -12.83,-2.5 -19.44,-3.13l0 -22.96c0,-2.54 -2.08,-4.62 -4.62,-4.62l-20.89 0c-2.54,0 -4.62,2.08 -4.62,4.62z"/>
  <path class="fil1" d="M877.12 230.7l92.96 0 0 -25.93 -80.67 0 0 -44.75 80.67 0 0 -25.93 -92.96 0c-1.79,0 -3.61,0.45 -5.47,1.35 -1.86,0.89 -3.52,2.08 -5,3.55 -1.47,1.47 -2.66,3.13 -3.55,4.99 -0.9,1.86 -1.35,3.75 -1.35,5.67l0 65.49c0,1.92 0.45,3.81 1.35,5.67 0.89,1.86 2.08,3.52 3.55,5 1.47,1.47 3.14,2.66 5,3.55 1.86,0.89 3.68,1.35 5.47,1.35z"/>
  <polygon class="fil1" points="821.61,230.7 849.46,230.7 849.46,168.6 821.61,168.6 "/>
  <polygon class="fil1" points="693.31,160.02 737.49,160.02 737.49,230.7 765.14,230.7 765.14,160.02 809.32,160.02 809.32,134.09 693.31,134.09 "/>
  <path class="fil1" d="M653.36 170.58l0 -10.56 -63.19 0 0 44.75 90.85 0 0 25.93 -103.14 0c-1.79,0 -3.61,-0.45 -5.47,-1.35 -1.86,-0.89 -3.52,-2.08 -5,-3.55 -1.47,-1.47 -2.66,-3.14 -3.55,-5 -0.9,-1.86 -1.35,-3.75 -1.35,-5.67l0 -65.49c0,-1.92 0.45,-3.81 1.35,-5.67 0.89,-1.86 2.08,-3.52 3.55,-4.99 1.47,-1.47 3.13,-2.66 5,-3.55 1.86,-0.9 3.68,-1.35 5.47,-1.35l87.78 0c1.79,0 3.61,0.45 5.47,1.35 1.86,0.89 3.52,2.08 5,3.55 1.47,1.47 2.66,3.13 3.55,4.99 0.9,1.86 1.35,3.75 1.35,5.67l0 29c0,1.92 -0.45,3.81 -1.35,5.67 -0.89,1.86 -2.08,3.52 -3.55,5 -1.47,1.47 -3.14,2.65 -5,3.55 -1.86,0.89 -3.68,1.35 -5.47,1.35l-64.92 0 0 -23.63 52.63 0z"/>
  <path class="fil1" d="M522.56 194.21l0 10.56 -100.64 0 0 25.93 112.93 0c1.79,0 3.62,-0.45 5.48,-1.35 1.86,-0.89 3.52,-2.08 4.99,-3.55 1.47,-1.47 2.66,-3.14 3.56,-5 0.89,-1.86 1.34,-3.75 1.34,-5.67l0 -29c0,-1.92 -0.45,-3.81 -1.34,-5.67 -0.9,-1.86 -2.09,-3.52 -3.56,-5 -1.47,-1.47 -3.13,-2.66 -4.99,-3.55 -1.86,-0.9 -3.68,-1.35 -5.48,-1.35l-74.33 0 0 -10.56 89.7 0 0 -25.93 -101.98 0c-1.79,0 -3.62,0.45 -5.48,1.35 -1.86,0.89 -3.52,2.08 -5,3.55 -1.47,1.47 -2.65,3.13 -3.55,4.99 -0.89,1.86 -1.34,3.75 -1.34,5.67l0 29c0,1.92 0.45,3.81 1.34,5.67 0.9,1.86 2.08,3.52 3.55,5 1.48,1.47 3.14,2.65 5,3.55 1.86,0.89 3.68,1.35 5.48,1.35l74.33 0z"/>
  <g id="_1894641593632">
   <path class="fil1" d="M846.19 157.44c-5.88,5.88 -15.42,5.88 -21.3,0 -5.88,-5.88 -5.88,-15.42 0,-21.31 5.88,-5.88 15.42,-5.88 21.3,0 5.88,5.88 5.88,15.42 0,21.31z"/>
   <path class="fil1" d="M861.78 125.3c-14.76,-14.75 -37.5,-14.76 -52.26,0 -0.01,0 -0.01,0 -0.01,0l-15.67 -14.94c23,-23 60.43,-23 83.42,0l-15.46 14.94c0,0 -0.01,0 -0.01,0z"/>
   <path class="fil1" d="M782 98.53l-13.7 -13.7c17.97,-17.96 41.84,-27.85 67.24,-27.85 25.4,0 49.27,9.89 67.23,27.85l-13.7 13.7c-14.3,-14.3 -33.31,-22.18 -53.54,-22.18 -20.22,0 -39.24,7.88 -53.54,22.18z"/>
  </g>
  <g id="_1894641528832">
   <path class="fil1" d="M746.79 311.04c0,-0.06 0.02,-0.11 0.06,-0.16 0.04,-0.04 0.09,-0.06 0.17,-0.06l1.67 0c0.05,0 0.1,0.01 0.15,0.03 0.05,0.02 0.09,0.06 0.13,0.12 0.43,0.7 0.86,1.39 1.28,2.06 0.43,0.68 0.86,1.36 1.29,2.06l0 -4.09c0.01,-0.06 0.04,-0.11 0.08,-0.14 0.04,-0.03 0.09,-0.05 0.14,-0.05l1.46 0c0.07,0 0.13,0.02 0.18,0.06 0.05,0.04 0.07,0.09 0.07,0.17l0 7.16c0,0.07 -0.02,0.12 -0.06,0.15 -0.04,0.03 -0.1,0.05 -0.17,0.05l-1.63 0c-0.04,0 -0.08,-0.02 -0.11,-0.05 -0.03,-0.03 -0.07,-0.07 -0.11,-0.12 -0.45,-0.75 -0.9,-1.49 -1.34,-2.22 -0.45,-0.73 -0.89,-1.47 -1.35,-2.22l0 4.39c0,0.07 -0.02,0.13 -0.05,0.17 -0.03,0.04 -0.1,0.06 -0.19,0.06l-1.45 0c-0.07,0 -0.13,-0.02 -0.17,-0.06 -0.04,-0.05 -0.06,-0.1 -0.06,-0.15l0 -7.14z"/>
   <path class="fil1" d="M755.16 311.04c0,-0.06 0.02,-0.11 0.06,-0.16 0.03,-0.04 0.09,-0.06 0.17,-0.06l1.5 0c0.05,0 0.1,0.02 0.16,0.06 0.06,0.05 0.09,0.1 0.09,0.17l0 7.13c0,0.15 -0.09,0.22 -0.25,0.22l-1.5 0c-0.15,0 -0.22,-0.07 -0.22,-0.22l0 -7.13z"/>
   <path class="fil1" d="M760.87 318.29c-0.03,-0.06 -0.07,-0.12 -0.1,-0.19 -0.03,-0.06 -0.06,-0.13 -0.09,-0.19l-2.62 -6.86c0,-0.02 -0.01,-0.03 -0.01,-0.05 -0.01,-0.02 -0.01,-0.03 -0.01,-0.04 0,-0.1 0.06,-0.14 0.19,-0.14l1.64 0c0.13,0 0.22,0.06 0.26,0.19l1.56 4.65c0.14,-0.39 0.27,-0.78 0.4,-1.16 0.13,-0.39 0.25,-0.77 0.38,-1.16 0.13,-0.39 0.25,-0.77 0.38,-1.16 0.13,-0.38 0.26,-0.77 0.4,-1.16 0.05,-0.13 0.14,-0.19 0.28,-0.19l1.61 0c0.07,0 0.13,0.01 0.17,0.04 0.03,0.03 0.05,0.07 0.05,0.11 0,0.03 0,0.05 -0.01,0.06l0 0.02 -2.63 6.86c-0.02,0.05 -0.04,0.1 -0.06,0.15 -0.02,0.06 -0.05,0.11 -0.08,0.16 -0.03,0.05 -0.07,0.09 -0.11,0.13 -0.04,0.03 -0.09,0.05 -0.14,0.05l-1.26 0c-0.11,0 -0.18,-0.03 -0.21,-0.11z"/>
   <path class="fil1" d="M766.29 311.05c0,-0.07 0.02,-0.13 0.06,-0.17 0.04,-0.05 0.09,-0.06 0.17,-0.06l5.06 0c0.07,0 0.13,0.02 0.17,0.06 0.04,0.05 0.06,0.1 0.06,0.18l0 1.27c0,0.06 -0.02,0.11 -0.06,0.16 -0.04,0.06 -0.1,0.08 -0.18,0.08l-3.31 0 0 1.27 2.56 0c0.06,0 0.12,0.02 0.16,0.05 0.04,0.03 0.06,0.09 0.06,0.15l0 1.11c0,0.05 -0.02,0.09 -0.05,0.14 -0.04,0.04 -0.1,0.06 -0.17,0.06l-2.56 0 0 1.31 3.43 0c0.15,0 0.23,0.08 0.23,0.23l0 1.28c0,0.03 -0.01,0.07 -0.04,0.09 -0.01,0.1 -0.08,0.14 -0.21,0.14l-5.16 0c-0.07,0 -0.13,-0.02 -0.17,-0.05 -0.04,-0.04 -0.06,-0.09 -0.06,-0.17l0 -7.13z"/>
   <path class="fil1" d="M777.19 313.32c0,-0.1 -0.02,-0.2 -0.06,-0.3 -0.03,-0.1 -0.09,-0.19 -0.15,-0.28 -0.07,-0.09 -0.15,-0.15 -0.25,-0.22 -0.1,-0.06 -0.2,-0.09 -0.32,-0.11 -0.1,-0.01 -0.19,-0.01 -0.27,-0.02 -0.09,-0.01 -0.18,-0.01 -0.27,-0.01l-0.7 0 0 1.87 0.94 0c0.06,0 0.11,0 0.17,-0.01 0.05,0 0.1,-0.01 0.15,-0.01 0.12,-0.02 0.23,-0.05 0.33,-0.1 0.09,-0.06 0.17,-0.13 0.23,-0.21 0.07,-0.09 0.11,-0.18 0.15,-0.28 0.03,-0.1 0.05,-0.21 0.05,-0.32zm-4 -2.26c0,-0.07 0.02,-0.13 0.06,-0.17 0.04,-0.05 0.09,-0.06 0.17,-0.06l3.29 0c0.36,0 0.68,0.06 0.99,0.19 0.31,0.13 0.57,0.31 0.8,0.53 0.23,0.22 0.41,0.49 0.54,0.79 0.13,0.3 0.2,0.62 0.2,0.96 0,0.23 -0.03,0.45 -0.1,0.66 -0.06,0.21 -0.15,0.41 -0.26,0.59 -0.11,0.18 -0.25,0.34 -0.4,0.49 -0.15,0.15 -0.32,0.27 -0.5,0.38l1.31 2.47c0.02,0.05 0.05,0.1 0.09,0.17 0.03,0.07 0.05,0.12 0.05,0.17 0,0.05 -0.02,0.09 -0.05,0.12 -0.03,0.03 -0.09,0.05 -0.14,0.05l-1.75 0c-0.06,0 -0.11,-0.02 -0.15,-0.05 -0.05,-0.03 -0.07,-0.08 -0.09,-0.14l-1.24 -2.33 -0.83 0 0 2.3c0,0.14 -0.07,0.22 -0.23,0.22l-1.51 0c-0.07,0 -0.13,-0.02 -0.17,-0.05 -0.04,-0.04 -0.06,-0.09 -0.06,-0.17l0 -7.13z"/>
   <path class="fil1" d="M781.32 315.95c0.06,0.05 0.13,0.11 0.22,0.19 0.09,0.08 0.19,0.16 0.31,0.23 0.17,0.11 0.34,0.21 0.52,0.27 0.17,0.07 0.35,0.1 0.53,0.1 0.18,0 0.32,-0.02 0.44,-0.06 0.11,-0.04 0.21,-0.09 0.27,-0.15 0.07,-0.06 0.12,-0.14 0.15,-0.22 0.03,-0.09 0.04,-0.18 0.04,-0.27 0,-0.11 -0.04,-0.2 -0.12,-0.29 -0.08,-0.08 -0.18,-0.15 -0.29,-0.22 -0.11,-0.06 -0.23,-0.11 -0.36,-0.17 -0.13,-0.05 -0.23,-0.08 -0.33,-0.11 -0.41,-0.14 -0.77,-0.29 -1.07,-0.46 -0.31,-0.17 -0.56,-0.35 -0.77,-0.55 -0.21,-0.21 -0.36,-0.42 -0.46,-0.67 -0.1,-0.24 -0.15,-0.52 -0.15,-0.81 0,-0.32 0.06,-0.6 0.19,-0.86 0.13,-0.26 0.31,-0.48 0.55,-0.66 0.23,-0.18 0.52,-0.33 0.85,-0.43 0.33,-0.1 0.7,-0.15 1.12,-0.15 0.31,0 0.61,0.03 0.89,0.1 0.28,0.07 0.56,0.18 0.84,0.34 0.11,0.07 0.23,0.14 0.33,0.21 0.1,0.07 0.19,0.14 0.27,0.21 0.08,0.07 0.14,0.13 0.19,0.19 0.05,0.06 0.07,0.11 0.07,0.15 0,0.05 -0.01,0.09 -0.03,0.13 -0.02,0.03 -0.05,0.08 -0.1,0.13l-0.78 0.83c-0.06,0.06 -0.11,0.09 -0.17,0.09 -0.05,0 -0.09,-0.01 -0.13,-0.04 -0.03,-0.03 -0.08,-0.06 -0.13,-0.1l-0.05 -0.04c-0.07,-0.06 -0.14,-0.11 -0.23,-0.18 -0.09,-0.06 -0.17,-0.11 -0.27,-0.17 -0.09,-0.05 -0.19,-0.09 -0.3,-0.12 -0.11,-0.03 -0.21,-0.05 -0.32,-0.05 -0.11,0 -0.22,0.01 -0.32,0.03 -0.1,0.02 -0.18,0.05 -0.26,0.09 -0.07,0.04 -0.14,0.09 -0.18,0.16 -0.05,0.06 -0.07,0.14 -0.07,0.24 0,0.1 0.02,0.18 0.07,0.25 0.05,0.07 0.11,0.14 0.21,0.19 0.1,0.06 0.21,0.11 0.36,0.17 0.14,0.05 0.3,0.11 0.49,0.17 0.36,0.11 0.69,0.24 1,0.37 0.3,0.13 0.57,0.29 0.79,0.46 0.22,0.18 0.4,0.4 0.52,0.64 0.13,0.25 0.19,0.55 0.19,0.91 0,0.37 -0.08,0.71 -0.23,1.02 -0.15,0.3 -0.37,0.56 -0.63,0.77 -0.27,0.22 -0.58,0.38 -0.95,0.5 -0.36,0.12 -0.75,0.18 -1.16,0.18 -0.39,0 -0.77,-0.07 -1.15,-0.21 -0.38,-0.14 -0.73,-0.33 -1.06,-0.56 -0.14,-0.1 -0.25,-0.19 -0.34,-0.29 -0.09,-0.1 -0.17,-0.17 -0.22,-0.23l-0.01 -0.02c-0.01,-0.01 -0.01,-0.01 -0.01,-0.01 -0.01,0 -0.01,-0.01 -0.01,-0.01 -0.01,-0.01 -0.01,-0.01 -0.01,-0.02 0,0 -0.01,0 -0.01,-0.01 -0.07,-0.09 -0.11,-0.15 -0.11,-0.21 0,-0.06 0.04,-0.12 0.11,-0.19l0.89 -0.84c0.07,-0.05 0.13,-0.07 0.17,-0.07 0.03,0 0.06,0.01 0.1,0.03 0.03,0.02 0.07,0.05 0.12,0.09z"/>
   <path class="fil1" d="M787.08 311.04c0,-0.06 0.02,-0.11 0.06,-0.16 0.04,-0.04 0.09,-0.06 0.17,-0.06l1.51 0c0.05,0 0.1,0.02 0.16,0.06 0.06,0.05 0.09,0.1 0.09,0.17l0 7.13c0,0.15 -0.08,0.22 -0.25,0.22l-1.51 0c-0.15,0 -0.22,-0.07 -0.22,-0.22l0 -7.13z"/>
   <path class="fil1" d="M792.6 312.65l0 3.92 0.43 0c0.07,0 0.15,0 0.23,-0.01 0.07,-0.01 0.15,-0.01 0.22,-0.02 0.25,-0.02 0.49,-0.09 0.72,-0.19 0.22,-0.1 0.41,-0.24 0.58,-0.41 0.17,-0.17 0.29,-0.37 0.39,-0.6 0.09,-0.23 0.14,-0.48 0.14,-0.74 0,-0.29 -0.05,-0.55 -0.16,-0.79 -0.11,-0.24 -0.25,-0.45 -0.44,-0.62 -0.18,-0.17 -0.4,-0.31 -0.65,-0.41 -0.25,-0.1 -0.51,-0.14 -0.79,-0.14l-0.67 0zm4.67 1.97c0,0.36 -0.05,0.7 -0.14,1.03 -0.09,0.33 -0.22,0.63 -0.4,0.91 -0.17,0.28 -0.37,0.53 -0.61,0.76 -0.23,0.23 -0.5,0.42 -0.78,0.58 -0.29,0.16 -0.6,0.28 -0.93,0.37 -0.33,0.09 -0.68,0.13 -1.04,0.13l-2.51 0c-0.06,0 -0.11,-0.01 -0.17,-0.04 -0.05,-0.03 -0.07,-0.09 -0.07,-0.17l0 -7.13c0,-0.07 0.02,-0.13 0.06,-0.18 0.04,-0.04 0.1,-0.06 0.18,-0.06l2.51 0c0.36,0 0.7,0.04 1.04,0.13 0.33,0.09 0.64,0.21 0.93,0.38 0.29,0.16 0.55,0.36 0.79,0.58 0.23,0.23 0.44,0.49 0.61,0.77 0.17,0.28 0.3,0.59 0.4,0.92 0.09,0.33 0.14,0.66 0.14,1.03z"/>
   <path class="fil1" d="M801.02 313.2c-0.06,0.17 -0.13,0.36 -0.19,0.56 -0.07,0.2 -0.13,0.4 -0.2,0.61 -0.06,0.21 -0.13,0.41 -0.19,0.61 -0.06,0.19 -0.13,0.38 -0.19,0.56l1.56 0 -0.78 -2.33zm-0.93 -2.19c0.01,-0.02 0.01,-0.04 0.03,-0.06 0.02,-0.02 0.04,-0.05 0.07,-0.07 0.02,-0.02 0.06,-0.03 0.09,-0.05 0.03,-0.01 0.06,-0.02 0.09,-0.02l1.31 0c0.06,0 0.11,0.02 0.15,0.05 0.04,0.03 0.07,0.07 0.09,0.1l0.13 0.29 2.68 6.91c0.03,0.07 0.02,0.12 -0.02,0.17 -0.03,0.04 -0.1,0.06 -0.19,0.06l-1.47 0c-0.08,0 -0.14,-0.02 -0.18,-0.05 -0.04,-0.03 -0.07,-0.07 -0.1,-0.14 -0.07,-0.17 -0.14,-0.34 -0.2,-0.52 -0.06,-0.17 -0.13,-0.34 -0.19,-0.52l-2.71 0c-0.06,0.18 -0.13,0.35 -0.19,0.52 -0.07,0.17 -0.13,0.34 -0.2,0.52 -0.04,0.13 -0.13,0.19 -0.26,0.19l-1.51 0c-0.06,0 -0.12,-0.02 -0.16,-0.05 -0.04,-0.03 -0.05,-0.09 -0.02,-0.15l2.77 -7.18z"/>
   <path class="fil1" d="M807.63 312.65l0 3.92 0.43 0c0.08,0 0.15,0 0.23,-0.01 0.07,-0.01 0.15,-0.01 0.22,-0.02 0.26,-0.02 0.49,-0.09 0.72,-0.19 0.22,-0.1 0.41,-0.24 0.58,-0.41 0.17,-0.17 0.3,-0.37 0.39,-0.6 0.09,-0.23 0.14,-0.48 0.14,-0.74 0,-0.29 -0.05,-0.55 -0.16,-0.79 -0.1,-0.24 -0.25,-0.45 -0.44,-0.62 -0.18,-0.17 -0.4,-0.31 -0.65,-0.41 -0.25,-0.1 -0.51,-0.14 -0.78,-0.14l-0.68 0zm4.67 1.97c0,0.36 -0.05,0.7 -0.14,1.03 -0.09,0.33 -0.22,0.63 -0.39,0.91 -0.17,0.28 -0.37,0.53 -0.61,0.76 -0.23,0.23 -0.5,0.42 -0.78,0.58 -0.29,0.16 -0.6,0.28 -0.93,0.37 -0.33,0.09 -0.68,0.13 -1.03,0.13l-2.52 0c-0.06,0 -0.11,-0.01 -0.16,-0.04 -0.05,-0.03 -0.07,-0.09 -0.07,-0.17l0 -7.13c0,-0.07 0.02,-0.13 0.06,-0.18 0.03,-0.04 0.1,-0.06 0.17,-0.06l2.52 0c0.36,0 0.7,0.04 1.03,0.13 0.33,0.09 0.64,0.21 0.93,0.38 0.29,0.16 0.55,0.36 0.79,0.58 0.23,0.23 0.44,0.49 0.61,0.77 0.17,0.28 0.3,0.59 0.4,0.92 0.09,0.33 0.14,0.66 0.14,1.03z"/>
   <path class="fil1" d="M816.86 311.04c0,-0.06 0.02,-0.11 0.06,-0.16 0.04,-0.04 0.1,-0.06 0.17,-0.06l1.67 0c0.05,0 0.1,0.01 0.15,0.03 0.05,0.02 0.1,0.06 0.13,0.12 0.44,0.7 0.86,1.39 1.29,2.06 0.42,0.68 0.85,1.36 1.29,2.06l0 -4.09c0.01,-0.06 0.04,-0.11 0.08,-0.14 0.05,-0.03 0.09,-0.05 0.14,-0.05l1.46 0c0.07,0 0.13,0.02 0.18,0.06 0.05,0.04 0.07,0.09 0.07,0.17l0 7.16c0,0.07 -0.02,0.12 -0.06,0.15 -0.04,0.03 -0.1,0.05 -0.17,0.05l-1.63 0c-0.05,0 -0.09,-0.02 -0.12,-0.05 -0.03,-0.03 -0.07,-0.07 -0.11,-0.12 -0.45,-0.75 -0.9,-1.49 -1.34,-2.22 -0.44,-0.73 -0.89,-1.47 -1.35,-2.22l0 4.39c0,0.07 -0.02,0.13 -0.05,0.17 -0.03,0.04 -0.1,0.06 -0.18,0.06l-1.45 0c-0.08,0 -0.14,-0.02 -0.17,-0.06 -0.03,-0.05 -0.06,-0.1 -0.06,-0.15l0 -7.14z"/>
   <path class="fil1" d="M828.3 313.2c-0.06,0.17 -0.13,0.36 -0.19,0.56 -0.06,0.2 -0.13,0.4 -0.19,0.61 -0.06,0.21 -0.13,0.41 -0.2,0.61 -0.06,0.19 -0.13,0.38 -0.19,0.56l1.57 0 -0.78 -2.33zm-0.93 -2.19c0.01,-0.02 0.02,-0.04 0.03,-0.06 0.02,-0.02 0.04,-0.05 0.07,-0.07 0.03,-0.02 0.06,-0.03 0.09,-0.05 0.03,-0.01 0.06,-0.02 0.09,-0.02l1.31 0c0.06,0 0.1,0.02 0.14,0.05 0.04,0.03 0.07,0.07 0.09,0.1l0.13 0.29 2.68 6.91c0.02,0.07 0.02,0.12 -0.02,0.17 -0.04,0.04 -0.1,0.06 -0.19,0.06l-1.47 0c-0.07,0 -0.14,-0.02 -0.18,-0.05 -0.05,-0.03 -0.08,-0.07 -0.1,-0.14 -0.07,-0.17 -0.13,-0.34 -0.19,-0.52 -0.07,-0.17 -0.13,-0.34 -0.19,-0.52l-2.72 0c-0.06,0.18 -0.13,0.35 -0.19,0.52 -0.06,0.17 -0.13,0.34 -0.19,0.52 -0.05,0.13 -0.13,0.19 -0.26,0.19l-1.5 0c-0.07,0 -0.12,-0.02 -0.17,-0.05 -0.04,-0.03 -0.05,-0.09 -0.02,-0.15l2.77 -7.18z"/>
   <path class="fil1" d="M838.13 311.37c0.06,0.03 0.1,0.08 0.13,0.13 0.03,0.06 0.02,0.12 -0.01,0.19l-0.87 1.23c-0.04,0.06 -0.08,0.09 -0.12,0.1 -0.04,0.01 -0.09,-0.01 -0.15,-0.04 -0.17,-0.13 -0.35,-0.22 -0.55,-0.29 -0.21,-0.07 -0.42,-0.1 -0.64,-0.1 -0.28,0 -0.53,0.05 -0.77,0.16 -0.23,0.1 -0.44,0.25 -0.61,0.43 -0.17,0.18 -0.3,0.4 -0.4,0.65 -0.1,0.24 -0.14,0.5 -0.14,0.78 0,0.28 0.05,0.54 0.14,0.78 0.1,0.24 0.23,0.45 0.4,0.64 0.17,0.18 0.37,0.33 0.61,0.43 0.23,0.11 0.49,0.16 0.77,0.16 0.22,0 0.44,-0.03 0.64,-0.1 0.21,-0.07 0.39,-0.17 0.56,-0.29 0.06,-0.04 0.11,-0.06 0.15,-0.05 0.04,0.01 0.09,0.03 0.13,0.09l0.87 1.25c0.04,0.07 0.04,0.14 0.02,0.19 -0.03,0.05 -0.07,0.09 -0.13,0.13 -0.32,0.21 -0.67,0.38 -1.04,0.5 -0.37,0.11 -0.76,0.18 -1.17,0.18 -0.36,0 -0.7,-0.05 -1.04,-0.14 -0.33,-0.1 -0.64,-0.22 -0.93,-0.4 -0.29,-0.17 -0.55,-0.37 -0.78,-0.61 -0.24,-0.23 -0.44,-0.5 -0.61,-0.78 -0.17,-0.29 -0.3,-0.6 -0.39,-0.93 -0.09,-0.33 -0.14,-0.68 -0.14,-1.04 0,-0.36 0.05,-0.71 0.14,-1.04 0.09,-0.33 0.22,-0.64 0.39,-0.93 0.17,-0.29 0.37,-0.56 0.61,-0.79 0.23,-0.24 0.5,-0.44 0.78,-0.61 0.29,-0.17 0.6,-0.3 0.93,-0.4 0.33,-0.09 0.68,-0.14 1.04,-0.14 0.41,0 0.8,0.06 1.16,0.17 0.37,0.11 0.7,0.27 1.03,0.49z"/>
   <path class="fil1" d="M839.57 311.04c0,-0.06 0.02,-0.11 0.05,-0.16 0.04,-0.04 0.1,-0.06 0.17,-0.06l1.5 0c0.05,0 0.1,0.02 0.16,0.06 0.06,0.05 0.09,0.1 0.09,0.17l0 7.13c0,0.15 -0.08,0.22 -0.25,0.22l-1.5 0c-0.15,0 -0.22,-0.07 -0.22,-0.22l0 -7.13z"/>
   <path class="fil1" d="M844.81 314.61c0,0.28 0.05,0.54 0.14,0.79 0.09,0.25 0.23,0.46 0.4,0.64 0.17,0.18 0.38,0.32 0.61,0.43 0.23,0.1 0.49,0.15 0.77,0.15 0.28,0 0.54,-0.05 0.78,-0.15 0.23,-0.11 0.44,-0.25 0.61,-0.43 0.17,-0.18 0.3,-0.4 0.4,-0.64 0.1,-0.25 0.14,-0.51 0.14,-0.79 0,-0.28 -0.05,-0.54 -0.14,-0.79 -0.09,-0.25 -0.22,-0.46 -0.4,-0.65 -0.17,-0.18 -0.38,-0.33 -0.61,-0.43 -0.23,-0.11 -0.5,-0.16 -0.78,-0.16 -0.28,0 -0.54,0.05 -0.77,0.16 -0.23,0.1 -0.44,0.25 -0.61,0.43 -0.17,0.18 -0.3,0.4 -0.4,0.65 -0.1,0.25 -0.14,0.51 -0.14,0.79zm-1.98 0.01c0,-0.36 0.05,-0.71 0.14,-1.04 0.09,-0.33 0.22,-0.64 0.4,-0.93 0.17,-0.29 0.37,-0.56 0.61,-0.79 0.23,-0.24 0.5,-0.44 0.79,-0.61 0.29,-0.17 0.6,-0.3 0.93,-0.4 0.33,-0.09 0.68,-0.14 1.04,-0.14 0.36,0 0.7,0.05 1.04,0.14 0.33,0.1 0.65,0.23 0.93,0.4 0.29,0.17 0.56,0.37 0.8,0.61 0.23,0.23 0.44,0.5 0.61,0.79 0.17,0.29 0.3,0.6 0.4,0.93 0.09,0.33 0.14,0.68 0.14,1.04 0,0.36 -0.05,0.7 -0.14,1.04 -0.1,0.33 -0.23,0.64 -0.4,0.93 -0.17,0.29 -0.37,0.55 -0.61,0.78 -0.24,0.24 -0.5,0.44 -0.8,0.61 -0.29,0.17 -0.6,0.3 -0.93,0.4 -0.33,0.09 -0.68,0.14 -1.04,0.14 -0.36,0 -0.7,-0.05 -1.04,-0.14 -0.33,-0.1 -0.65,-0.22 -0.93,-0.4 -0.29,-0.17 -0.56,-0.37 -0.79,-0.61 -0.23,-0.23 -0.44,-0.5 -0.61,-0.78 -0.17,-0.29 -0.3,-0.6 -0.4,-0.93 -0.09,-0.33 -0.14,-0.68 -0.14,-1.04z"/>
   <path class="fil1" d="M851.91 311.04c0,-0.06 0.02,-0.11 0.06,-0.16 0.04,-0.04 0.09,-0.06 0.17,-0.06l1.67 0c0.05,0 0.1,0.01 0.15,0.03 0.05,0.02 0.09,0.06 0.13,0.12 0.43,0.7 0.86,1.39 1.29,2.06 0.42,0.68 0.85,1.36 1.29,2.06l0 -4.09c0.01,-0.06 0.04,-0.11 0.08,-0.14 0.04,-0.03 0.09,-0.05 0.14,-0.05l1.46 0c0.07,0 0.13,0.02 0.18,0.06 0.05,0.04 0.07,0.09 0.07,0.17l0 7.16c0,0.07 -0.02,0.12 -0.06,0.15 -0.04,0.03 -0.1,0.05 -0.17,0.05l-1.63 0c-0.04,0 -0.08,-0.02 -0.11,-0.05 -0.03,-0.03 -0.07,-0.07 -0.11,-0.12 -0.45,-0.75 -0.9,-1.49 -1.34,-2.22 -0.44,-0.73 -0.89,-1.47 -1.35,-2.22l0 4.39c0,0.07 -0.02,0.13 -0.05,0.17 -0.03,0.04 -0.1,0.06 -0.19,0.06l-1.45 0c-0.07,0 -0.13,-0.02 -0.17,-0.06 -0.04,-0.05 -0.06,-0.1 -0.06,-0.15l0 -7.14z"/>
   <path class="fil1" d="M863.35 313.2c-0.06,0.17 -0.13,0.36 -0.19,0.56 -0.07,0.2 -0.13,0.4 -0.19,0.61 -0.07,0.21 -0.13,0.41 -0.2,0.61 -0.06,0.19 -0.13,0.38 -0.19,0.56l1.56 0 -0.78 -2.33zm-0.93 -2.19c0.01,-0.02 0.02,-0.04 0.03,-0.06 0.02,-0.02 0.04,-0.05 0.07,-0.07 0.03,-0.02 0.06,-0.03 0.09,-0.05 0.03,-0.01 0.06,-0.02 0.09,-0.02l1.31 0c0.06,0 0.11,0.02 0.15,0.05 0.04,0.03 0.07,0.07 0.09,0.1l0.13 0.29 2.68 6.91c0.03,0.07 0.02,0.12 -0.01,0.17 -0.04,0.04 -0.1,0.06 -0.19,0.06l-1.47 0c-0.08,0 -0.14,-0.02 -0.18,-0.05 -0.04,-0.03 -0.07,-0.07 -0.1,-0.14 -0.07,-0.17 -0.13,-0.34 -0.2,-0.52 -0.06,-0.17 -0.13,-0.34 -0.19,-0.52l-2.71 0c-0.06,0.18 -0.13,0.35 -0.19,0.52 -0.07,0.17 -0.13,0.34 -0.2,0.52 -0.04,0.13 -0.13,0.19 -0.26,0.19l-1.51 0c-0.06,0 -0.11,-0.02 -0.16,-0.05 -0.04,-0.03 -0.05,-0.09 -0.02,-0.15l2.77 -7.18z"/>
   <path class="fil1" d="M867.89 311.04c0,-0.06 0.02,-0.11 0.06,-0.16 0.04,-0.04 0.1,-0.06 0.17,-0.06l1.51 0c0.06,0 0.11,0.02 0.16,0.06 0.05,0.05 0.07,0.1 0.07,0.17l0 5.56 2.81 0c0.06,0 0.11,0.02 0.16,0.06 0.05,0.04 0.07,0.1 0.07,0.17l0 1.34c0,0.06 -0.02,0.11 -0.06,0.16 -0.03,0.05 -0.09,0.07 -0.17,0.07l-4.55 0c-0.15,0 -0.23,-0.07 -0.23,-0.22l0 -7.14z"/>
   <path class="fil1" d="M879.19 312.65l0 3.92 0.43 0c0.07,0 0.15,0 0.23,-0.01 0.07,-0.01 0.15,-0.01 0.22,-0.02 0.25,-0.02 0.49,-0.09 0.71,-0.19 0.22,-0.1 0.42,-0.24 0.58,-0.41 0.17,-0.17 0.29,-0.37 0.39,-0.6 0.09,-0.23 0.14,-0.48 0.14,-0.74 0,-0.29 -0.05,-0.55 -0.16,-0.79 -0.11,-0.24 -0.25,-0.45 -0.44,-0.62 -0.18,-0.17 -0.4,-0.31 -0.65,-0.41 -0.25,-0.1 -0.51,-0.14 -0.79,-0.14l-0.67 0zm4.67 1.97c0,0.36 -0.05,0.7 -0.14,1.03 -0.09,0.33 -0.22,0.63 -0.4,0.91 -0.17,0.28 -0.37,0.53 -0.61,0.76 -0.24,0.23 -0.5,0.42 -0.78,0.58 -0.29,0.16 -0.6,0.28 -0.93,0.37 -0.33,0.09 -0.68,0.13 -1.04,0.13l-2.51 0c-0.06,0 -0.11,-0.01 -0.17,-0.04 -0.05,-0.03 -0.07,-0.09 -0.07,-0.17l0 -7.13c0,-0.07 0.02,-0.13 0.06,-0.18 0.04,-0.04 0.1,-0.06 0.18,-0.06l2.51 0c0.36,0 0.7,0.04 1.04,0.13 0.33,0.09 0.64,0.21 0.93,0.38 0.29,0.16 0.55,0.36 0.78,0.58 0.24,0.23 0.45,0.49 0.61,0.77 0.17,0.28 0.3,0.59 0.4,0.92 0.09,0.33 0.14,0.66 0.14,1.03z"/>
   <path class="fil1" d="M885.19 311.05c0,-0.07 0.02,-0.13 0.06,-0.17 0.04,-0.05 0.09,-0.06 0.17,-0.06l5.06 0c0.07,0 0.13,0.02 0.17,0.06 0.04,0.05 0.06,0.1 0.06,0.18l0 1.27c0,0.06 -0.02,0.11 -0.06,0.16 -0.04,0.06 -0.1,0.08 -0.18,0.08l-3.31 0 0 1.27 2.55 0c0.06,0 0.12,0.02 0.16,0.05 0.05,0.03 0.06,0.09 0.06,0.15l0 1.11c0,0.05 -0.02,0.09 -0.05,0.14 -0.04,0.04 -0.09,0.06 -0.17,0.06l-2.56 0 0 1.31 3.43 0c0.15,0 0.23,0.08 0.23,0.23l0 1.28c0,0.03 -0.02,0.07 -0.04,0.09 -0.02,0.1 -0.09,0.14 -0.21,0.14l-5.16 0c-0.07,0 -0.12,-0.02 -0.17,-0.05 -0.04,-0.04 -0.06,-0.09 -0.06,-0.17l0 -7.13z"/>
   <path class="fil1" d="M898.38 313.2c-0.06,0.17 -0.13,0.36 -0.19,0.56 -0.06,0.2 -0.13,0.4 -0.19,0.61 -0.06,0.21 -0.13,0.41 -0.2,0.61 -0.06,0.19 -0.13,0.38 -0.19,0.56l1.57 0 -0.78 -2.33zm-0.93 -2.19c0.01,-0.02 0.02,-0.04 0.03,-0.06 0.02,-0.02 0.04,-0.05 0.07,-0.07 0.03,-0.02 0.06,-0.03 0.09,-0.05 0.03,-0.01 0.06,-0.02 0.09,-0.02l1.31 0c0.06,0 0.1,0.02 0.14,0.05 0.04,0.03 0.07,0.07 0.09,0.1l0.13 0.29 2.68 6.91c0.02,0.07 0.02,0.12 -0.02,0.17 -0.04,0.04 -0.1,0.06 -0.19,0.06l-1.47 0c-0.07,0 -0.14,-0.02 -0.18,-0.05 -0.05,-0.03 -0.08,-0.07 -0.1,-0.14 -0.07,-0.17 -0.13,-0.34 -0.2,-0.52 -0.06,-0.17 -0.13,-0.34 -0.19,-0.52l-2.72 0c-0.06,0.18 -0.13,0.35 -0.19,0.52 -0.06,0.17 -0.13,0.34 -0.19,0.52 -0.05,0.13 -0.13,0.19 -0.26,0.19l-1.5 0c-0.07,0 -0.12,-0.02 -0.17,-0.05 -0.04,-0.03 -0.05,-0.09 -0.02,-0.15l2.77 -7.18z"/>
   <path class="fil1" d="M907.21 312.95c-0.17,-0.12 -0.36,-0.22 -0.56,-0.29 -0.19,-0.07 -0.41,-0.1 -0.63,-0.1 -0.29,0 -0.54,0.06 -0.78,0.16 -0.23,0.11 -0.44,0.25 -0.6,0.44 -0.17,0.19 -0.3,0.4 -0.4,0.65 -0.1,0.25 -0.14,0.51 -0.14,0.79 0,0.28 0.05,0.54 0.14,0.78 0.09,0.25 0.22,0.46 0.4,0.64 0.17,0.18 0.37,0.33 0.6,0.43 0.23,0.11 0.49,0.16 0.78,0.16 0.11,0 0.23,-0.01 0.36,-0.02 0.11,-0.02 0.24,-0.04 0.37,-0.07l0 -1.34c0,-0.06 0.02,-0.11 0.06,-0.16 0.03,-0.04 0.09,-0.06 0.17,-0.06l1.39 0c0.05,0 0.1,0.02 0.16,0.06 0.06,0.04 0.09,0.1 0.09,0.16l0 2.47c0,0.09 -0.05,0.17 -0.15,0.22 -0.15,0.11 -0.33,0.2 -0.53,0.28 -0.19,0.08 -0.4,0.14 -0.61,0.19 -0.21,0.05 -0.42,0.09 -0.64,0.11 -0.22,0.03 -0.42,0.04 -0.63,0.04 -0.36,0 -0.71,-0.05 -1.04,-0.14 -0.33,-0.1 -0.65,-0.22 -0.93,-0.4 -0.29,-0.17 -0.55,-0.37 -0.79,-0.61 -0.23,-0.23 -0.44,-0.5 -0.61,-0.78 -0.17,-0.29 -0.3,-0.6 -0.4,-0.93 -0.09,-0.33 -0.14,-0.68 -0.14,-1.04 0,-0.36 0.05,-0.71 0.14,-1.04 0.09,-0.33 0.22,-0.64 0.4,-0.93 0.17,-0.29 0.37,-0.56 0.61,-0.79 0.24,-0.24 0.5,-0.44 0.79,-0.61 0.29,-0.17 0.6,-0.3 0.93,-0.4 0.33,-0.09 0.68,-0.14 1.04,-0.14 0.41,0 0.8,0.06 1.16,0.17 0.36,0.11 0.7,0.27 1.02,0.49 0.06,0.03 0.1,0.08 0.14,0.14 0.03,0.05 0.02,0.11 -0.02,0.19l-0.82 1.19c-0.05,0.06 -0.09,0.09 -0.14,0.11 -0.04,0.02 -0.1,0 -0.18,-0.05z"/>
   <path class="fil1" d="M914.1 313.32c0,-0.1 -0.02,-0.2 -0.05,-0.3 -0.04,-0.1 -0.09,-0.19 -0.16,-0.28 -0.07,-0.09 -0.15,-0.15 -0.25,-0.22 -0.1,-0.06 -0.2,-0.09 -0.32,-0.11 -0.1,-0.01 -0.18,-0.01 -0.27,-0.02 -0.08,-0.01 -0.17,-0.01 -0.27,-0.01l-0.7 0 0 1.87 0.94 0c0.06,0 0.12,0 0.17,-0.01 0.05,0 0.1,-0.01 0.15,-0.01 0.12,-0.02 0.23,-0.05 0.33,-0.1 0.09,-0.06 0.17,-0.13 0.24,-0.21 0.06,-0.09 0.11,-0.18 0.14,-0.28 0.03,-0.1 0.05,-0.21 0.05,-0.32zm-3.99 -2.26c0,-0.07 0.02,-0.13 0.05,-0.17 0.04,-0.05 0.1,-0.06 0.17,-0.06l3.29 0c0.36,0 0.68,0.06 0.99,0.19 0.31,0.13 0.58,0.31 0.8,0.53 0.23,0.22 0.41,0.49 0.54,0.79 0.13,0.3 0.2,0.62 0.2,0.96 0,0.23 -0.03,0.45 -0.1,0.66 -0.06,0.21 -0.15,0.41 -0.26,0.59 -0.11,0.18 -0.25,0.34 -0.4,0.49 -0.15,0.15 -0.32,0.27 -0.5,0.38l1.31 2.47c0.02,0.05 0.05,0.1 0.09,0.17 0.03,0.07 0.06,0.12 0.06,0.17 0,0.05 -0.02,0.09 -0.06,0.12 -0.03,0.03 -0.09,0.05 -0.14,0.05l-1.75 0c-0.06,0 -0.11,-0.02 -0.15,-0.05 -0.05,-0.03 -0.07,-0.08 -0.09,-0.14l-1.24 -2.33 -0.83 0 0 2.3c0,0.14 -0.07,0.22 -0.23,0.22l-1.51 0c-0.07,0 -0.13,-0.02 -0.17,-0.05 -0.04,-0.04 -0.06,-0.09 -0.06,-0.17l0 -7.13z"/>
   <path class="fil1" d="M917.3 311.04c0,-0.06 0.02,-0.11 0.06,-0.16 0.03,-0.04 0.09,-0.06 0.17,-0.06l1.5 0c0.05,0 0.11,0.02 0.17,0.06 0.06,0.05 0.09,0.1 0.09,0.17l0 7.13c0,0.15 -0.08,0.22 -0.25,0.22l-1.5 0c-0.15,0 -0.22,-0.07 -0.22,-0.22l0 -7.13z"/>
   <path class="fil1" d="M926.7 311.37c0.06,0.03 0.1,0.08 0.13,0.13 0.03,0.06 0.02,0.12 -0.02,0.19l-0.86 1.23c-0.04,0.06 -0.08,0.09 -0.12,0.1 -0.05,0.01 -0.1,-0.01 -0.15,-0.04 -0.17,-0.13 -0.36,-0.22 -0.56,-0.29 -0.2,-0.07 -0.41,-0.1 -0.64,-0.1 -0.28,0 -0.54,0.05 -0.77,0.16 -0.23,0.1 -0.44,0.25 -0.61,0.43 -0.17,0.18 -0.3,0.4 -0.4,0.65 -0.1,0.24 -0.14,0.5 -0.14,0.78 0,0.28 0.05,0.54 0.14,0.78 0.09,0.24 0.23,0.45 0.4,0.64 0.17,0.18 0.37,0.33 0.61,0.43 0.23,0.11 0.49,0.16 0.77,0.16 0.22,0 0.44,-0.03 0.64,-0.1 0.21,-0.07 0.39,-0.17 0.56,-0.29 0.06,-0.04 0.11,-0.06 0.15,-0.05 0.04,0.01 0.08,0.03 0.12,0.09l0.88 1.25c0.03,0.07 0.04,0.14 0.01,0.19 -0.02,0.05 -0.07,0.09 -0.13,0.13 -0.32,0.21 -0.66,0.38 -1.03,0.5 -0.37,0.11 -0.76,0.18 -1.17,0.18 -0.36,0 -0.7,-0.05 -1.04,-0.14 -0.33,-0.1 -0.64,-0.22 -0.93,-0.4 -0.29,-0.17 -0.55,-0.37 -0.79,-0.61 -0.23,-0.23 -0.44,-0.5 -0.61,-0.78 -0.17,-0.29 -0.3,-0.6 -0.4,-0.93 -0.09,-0.33 -0.14,-0.68 -0.14,-1.04 0,-0.36 0.05,-0.71 0.14,-1.04 0.09,-0.33 0.22,-0.64 0.4,-0.93 0.17,-0.29 0.37,-0.56 0.61,-0.79 0.24,-0.24 0.5,-0.44 0.79,-0.61 0.29,-0.17 0.6,-0.3 0.93,-0.4 0.33,-0.09 0.68,-0.14 1.04,-0.14 0.41,0 0.8,0.06 1.16,0.17 0.36,0.11 0.7,0.27 1.03,0.49z"/>
   <path class="fil1" d="M930.06 315.37c0,0.25 0.03,0.46 0.1,0.64 0.07,0.18 0.17,0.32 0.28,0.43 0.11,0.11 0.25,0.19 0.4,0.24 0.15,0.05 0.31,0.08 0.48,0.08 0.17,0 0.33,-0.03 0.48,-0.09 0.15,-0.06 0.29,-0.15 0.4,-0.26 0.11,-0.12 0.21,-0.26 0.27,-0.44 0.07,-0.18 0.1,-0.38 0.1,-0.6l0 -4.33c0,-0.06 0.02,-0.11 0.06,-0.16 0.04,-0.04 0.1,-0.06 0.17,-0.06l1.49 0c0.08,0 0.14,0.02 0.18,0.07 0.05,0.05 0.07,0.1 0.07,0.15l0 4.3c0,0.6 -0.09,1.09 -0.26,1.5 -0.18,0.41 -0.41,0.73 -0.71,0.98 -0.29,0.25 -0.64,0.42 -1.03,0.53 -0.39,0.11 -0.8,0.17 -1.23,0.17 -0.43,0 -0.84,-0.06 -1.23,-0.17 -0.4,-0.11 -0.74,-0.29 -1.04,-0.54 -0.29,-0.25 -0.53,-0.58 -0.7,-0.98 -0.18,-0.4 -0.26,-0.9 -0.26,-1.48l0 -4.3c0,-0.06 0.02,-0.11 0.06,-0.15 0.04,-0.05 0.09,-0.07 0.15,-0.07l1.52 0c0.05,0 0.11,0.02 0.16,0.06 0.06,0.04 0.09,0.1 0.09,0.16l0 4.33z"/>
   <path class="fil1" d="M935.85 311.04c0,-0.06 0.02,-0.11 0.06,-0.16 0.05,-0.04 0.1,-0.06 0.17,-0.06l1.51 0c0.06,0 0.11,0.02 0.15,0.06 0.05,0.05 0.07,0.1 0.08,0.17l0 5.56 2.81 0c0.06,0 0.11,0.02 0.15,0.06 0.05,0.04 0.07,0.1 0.07,0.17l0 1.34c0,0.06 -0.02,0.11 -0.06,0.16 -0.04,0.05 -0.1,0.07 -0.17,0.07l-4.56 0c-0.15,0 -0.22,-0.07 -0.22,-0.22l0 -7.14z"/>
   <path class="fil1" d="M940.96 311.04c0,-0.07 0.02,-0.12 0.07,-0.17 0.05,-0.04 0.1,-0.06 0.17,-0.06l5.49 0c0.06,0 0.11,0.02 0.16,0.05 0.05,0.04 0.07,0.1 0.08,0.17l0 1.27c0,0.06 -0.02,0.12 -0.06,0.18 -0.04,0.05 -0.1,0.08 -0.18,0.08l-1.76 0 0 5.59c0,0.06 -0.02,0.12 -0.06,0.17 -0.05,0.05 -0.1,0.07 -0.18,0.07l-1.5 0c-0.06,0 -0.11,-0.02 -0.17,-0.07 -0.05,-0.05 -0.07,-0.1 -0.07,-0.17l0 -5.59 -1.75 0c-0.07,0 -0.13,-0.02 -0.17,-0.06 -0.05,-0.05 -0.07,-0.11 -0.07,-0.19l0 -1.27z"/>
   <path class="fil1" d="M950.12 315.37c0,0.25 0.04,0.46 0.11,0.64 0.07,0.18 0.16,0.32 0.27,0.43 0.11,0.11 0.25,0.19 0.4,0.24 0.15,0.05 0.31,0.08 0.47,0.08 0.17,0 0.33,-0.03 0.49,-0.09 0.15,-0.06 0.28,-0.15 0.4,-0.26 0.11,-0.12 0.21,-0.26 0.27,-0.44 0.06,-0.18 0.1,-0.38 0.1,-0.6l0 -4.33c0,-0.06 0.02,-0.11 0.06,-0.16 0.05,-0.04 0.1,-0.06 0.17,-0.06l1.49 0c0.08,0 0.14,0.02 0.18,0.07 0.05,0.05 0.07,0.1 0.07,0.15l0 4.3c0,0.6 -0.09,1.09 -0.26,1.5 -0.18,0.41 -0.41,0.73 -0.7,0.98 -0.3,0.25 -0.64,0.42 -1.03,0.53 -0.39,0.11 -0.8,0.17 -1.23,0.17 -0.43,0 -0.84,-0.06 -1.23,-0.17 -0.39,-0.11 -0.73,-0.29 -1.03,-0.54 -0.3,-0.25 -0.53,-0.58 -0.71,-0.98 -0.17,-0.4 -0.26,-0.9 -0.26,-1.48l0 -4.3c0,-0.06 0.02,-0.11 0.06,-0.15 0.04,-0.05 0.09,-0.07 0.14,-0.07l1.53 0c0.05,0 0.1,0.02 0.16,0.06 0.05,0.04 0.08,0.1 0.08,0.16l0 4.33z"/>
   <path class="fil1" d="M960.09 313.32c0,-0.1 -0.02,-0.2 -0.06,-0.3 -0.03,-0.1 -0.09,-0.19 -0.16,-0.28 -0.06,-0.09 -0.15,-0.15 -0.24,-0.22 -0.1,-0.06 -0.2,-0.09 -0.32,-0.11 -0.09,-0.01 -0.18,-0.01 -0.26,-0.02 -0.09,-0.01 -0.18,-0.01 -0.27,-0.01l-0.7 0 0 1.87 0.94 0c0.06,0 0.11,0 0.16,-0.01 0.05,0 0.1,-0.01 0.16,-0.01 0.12,-0.02 0.23,-0.05 0.32,-0.1 0.1,-0.06 0.18,-0.13 0.24,-0.21 0.06,-0.09 0.11,-0.18 0.15,-0.28 0.03,-0.1 0.05,-0.21 0.05,-0.32zm-4 -2.26c0,-0.07 0.02,-0.13 0.06,-0.17 0.03,-0.05 0.09,-0.06 0.17,-0.06l3.3 0c0.35,0 0.68,0.06 0.99,0.19 0.3,0.13 0.57,0.31 0.8,0.53 0.23,0.22 0.41,0.49 0.54,0.79 0.13,0.3 0.19,0.62 0.19,0.96 0,0.23 -0.03,0.45 -0.09,0.66 -0.06,0.21 -0.15,0.41 -0.26,0.59 -0.11,0.18 -0.25,0.34 -0.4,0.49 -0.15,0.15 -0.33,0.27 -0.51,0.38l1.31 2.47c0.02,0.05 0.06,0.1 0.09,0.17 0.04,0.07 0.06,0.12 0.06,0.17 0,0.05 -0.02,0.09 -0.05,0.12 -0.03,0.03 -0.09,0.05 -0.15,0.05l-1.75 0c-0.06,0 -0.11,-0.02 -0.16,-0.05 -0.04,-0.03 -0.07,-0.08 -0.09,-0.14l-1.24 -2.33 -0.82 0 0 2.3c0,0.14 -0.08,0.22 -0.23,0.22l-1.52 0c-0.07,0 -0.12,-0.02 -0.16,-0.05 -0.04,-0.04 -0.06,-0.09 -0.06,-0.17l0 -7.13z"/>
   <path class="fil1" d="M966.36 313.2c-0.06,0.17 -0.13,0.36 -0.19,0.56 -0.07,0.2 -0.13,0.4 -0.2,0.61 -0.06,0.21 -0.13,0.41 -0.19,0.61 -0.07,0.19 -0.13,0.38 -0.19,0.56l1.56 0 -0.78 -2.33zm-0.93 -2.19c0,-0.02 0.01,-0.04 0.03,-0.06 0.02,-0.02 0.04,-0.05 0.07,-0.07 0.02,-0.02 0.06,-0.03 0.09,-0.05 0.03,-0.01 0.06,-0.02 0.09,-0.02l1.31 0c0.06,0 0.11,0.02 0.15,0.05 0.04,0.03 0.07,0.07 0.09,0.1l0.13 0.29 2.68 6.91c0.03,0.07 0.02,0.12 -0.02,0.17 -0.03,0.04 -0.1,0.06 -0.19,0.06l-1.47 0c-0.08,0 -0.14,-0.02 -0.18,-0.05 -0.04,-0.03 -0.07,-0.07 -0.1,-0.14 -0.07,-0.17 -0.14,-0.34 -0.2,-0.52 -0.06,-0.17 -0.13,-0.34 -0.19,-0.52l-2.71 0c-0.06,0.18 -0.13,0.35 -0.19,0.52 -0.07,0.17 -0.13,0.34 -0.2,0.52 -0.04,0.13 -0.13,0.19 -0.26,0.19l-1.51 0c-0.06,0 -0.12,-0.02 -0.16,-0.05 -0.04,-0.03 -0.05,-0.09 -0.02,-0.15l2.77 -7.18z"/>
   <path class="fil1" d="M754.47 281.22c0,1.96 0.27,3.61 0.81,4.98 0.54,1.36 1.26,2.47 2.14,3.33 0.89,0.86 1.92,1.49 3.1,1.88 1.18,0.4 2.4,0.6 3.67,0.6 1.32,0 2.57,-0.23 3.75,-0.69 1.18,-0.46 2.21,-1.15 3.1,-2.06 0.89,-0.92 1.59,-2.05 2.1,-3.39 0.52,-1.35 0.77,-2.89 0.77,-4.64l0 -33.62c0,-0.48 0.17,-0.88 0.5,-1.23 0.33,-0.34 0.77,-0.52 1.32,-0.52l11.57 0c0.61,0 1.08,0.18 1.43,0.53 0.34,0.36 0.52,0.76 0.52,1.21l0 33.39c0,4.62 -0.68,8.5 -2.04,11.64 -1.36,3.15 -3.19,5.67 -5.49,7.58 -2.3,1.92 -4.96,3.29 -7.98,4.12 -3.02,0.84 -6.2,1.25 -9.53,1.25 -3.33,0 -6.51,-0.43 -9.54,-1.28 -3.04,-0.86 -5.71,-2.26 -8,-4.2 -2.3,-1.94 -4.12,-4.48 -5.48,-7.61 -1.36,-3.13 -2.04,-6.97 -2.04,-11.5l0 -33.39c0,-0.45 0.15,-0.85 0.45,-1.21 0.3,-0.36 0.68,-0.53 1.13,-0.53l11.85 0c0.4,0 0.81,0.17 1.25,0.49 0.43,0.33 0.65,0.75 0.65,1.25l0 33.62z"/>
   <path class="fil1" d="M798.69 247.63c0,-0.48 0.15,-0.9 0.44,-1.25 0.3,-0.35 0.74,-0.52 1.33,-0.52l13.15 0c0.37,0 0.76,0.09 1.16,0.28 0.41,0.19 0.75,0.51 1.05,0.96 3.4,5.5 6.78,10.92 10.13,16.25 3.35,5.33 6.75,10.75 10.18,16.25l0 -32.21c0.1,-0.49 0.32,-0.86 0.64,-1.13 0.32,-0.27 0.7,-0.4 1.13,-0.4l11.46 0c0.56,0 1.03,0.15 1.4,0.46 0.38,0.3 0.57,0.74 0.57,1.31l0 56.39c0,0.54 -0.16,0.93 -0.49,1.19 -0.32,0.25 -0.76,0.38 -1.32,0.38l-12.83 0c-0.35,0 -0.66,-0.12 -0.93,-0.36 -0.26,-0.24 -0.54,-0.56 -0.84,-0.96 -3.57,-5.9 -7.09,-11.73 -10.58,-17.5 -3.49,-5.76 -7.03,-11.6 -10.62,-17.5l0 34.55c0,0.59 -0.14,1.04 -0.4,1.33 -0.27,0.3 -0.75,0.44 -1.45,0.44l-11.42 0c-0.62,0 -1.07,-0.17 -1.35,-0.5 -0.28,-0.33 -0.42,-0.74 -0.42,-1.23l0 -56.23z"/>
   <path class="fil1" d="M959.3 262.94c-1.33,-0.94 -2.76,-1.67 -4.27,-2.19 -1.51,-0.52 -3.13,-0.78 -4.86,-0.78 -2.17,0 -4.15,0.41 -5.96,1.24 -1.8,0.82 -3.35,1.94 -4.65,3.35 -1.29,1.41 -2.3,3.06 -3.04,4.96 -0.73,1.89 -1.1,3.91 -1.1,6.06 0,2.14 0.37,4.15 1.1,6.04 0.73,1.88 1.74,3.52 3.04,4.92 1.29,1.4 2.85,2.5 4.65,3.31 1.8,0.81 3.79,1.21 5.96,1.21 0.92,0 1.83,-0.06 2.73,-0.19 0.91,-0.13 1.86,-0.3 2.88,-0.51l0 -10.27c0,-0.5 0.14,-0.91 0.44,-1.24 0.29,-0.33 0.72,-0.49 1.29,-0.49l10.67 0c0.39,0 0.81,0.15 1.25,0.47 0.44,0.32 0.66,0.73 0.66,1.25l0 18.97c0,0.71 -0.38,1.28 -1.13,1.72 -1.23,0.84 -2.59,1.56 -4.08,2.16 -1.49,0.6 -3.05,1.1 -4.66,1.49 -1.62,0.39 -3.27,0.69 -4.92,0.88 -1.66,0.19 -3.28,0.29 -4.84,0.29 -2.77,0 -5.43,-0.35 -7.98,-1.06 -2.55,-0.7 -4.93,-1.71 -7.16,-3.02 -2.22,-1.31 -4.24,-2.86 -6.06,-4.68 -1.82,-1.82 -3.38,-3.83 -4.69,-6.04 -1.31,-2.21 -2.31,-4.59 -3.02,-7.14 -0.71,-2.55 -1.06,-5.21 -1.06,-7.98 0,-2.77 0.35,-5.43 1.06,-7.97 0.7,-2.55 1.71,-4.94 3.02,-7.18 1.31,-2.23 2.86,-4.26 4.69,-6.1 1.82,-1.83 3.83,-3.39 6.06,-4.69 2.22,-1.29 4.61,-2.3 7.16,-3.02 2.55,-0.72 5.21,-1.08 7.98,-1.08 3.13,0 6.1,0.44 8.88,1.31 2.78,0.88 5.4,2.14 7.86,3.79 0.44,0.26 0.78,0.61 1.02,1.04 0.23,0.44 0.18,0.92 -0.16,1.47l-6.35 9.17c-0.34,0.42 -0.68,0.7 -1.02,0.84 -0.34,0.15 -0.8,0.03 -1.37,-0.33z"/>
   <path class="fil1" d="M906.33 302.26c8,-18.23 -19.17,-21.76 -24.27,-22.26 -0.34,-0.03 -0.58,0.33 -0.41,0.64 6.62,11.79 2,15.3 7.3,21.02 4.33,4.67 11.49,3.8 14.17,3.27 0.38,-0.07 0.46,-0.58 0.13,-0.78 -5.96,-3.58 -8.36,-7.75 -9.33,-10.36 -0.18,-0.47 0.47,-0.8 0.75,-0.38 4.06,6.03 7.51,8.39 9.46,9.3 0.02,0.01 0.06,0.03 0.08,0.05 0.38,0.13 0.79,0.21 1.19,0.13 0.4,-0.07 0.76,-0.26 0.93,-0.62z"/>
   <path class="fil1" d="M918.72 303.78l-21.12 -54.46 -0.94 -2.15c-0.04,-0.1 -0.09,-0.19 -0.16,-0.27 -0.15,-0.18 -0.37,-0.39 -0.63,-0.62 -0.32,-0.28 -0.71,-0.42 -1.16,-0.42l-10.3 0c-0.21,0 -0.44,0.05 -0.68,0.14 -0.24,0.1 -0.47,0.22 -0.68,0.38 -0.22,0.16 -0.4,0.34 -0.54,0.52 -0.15,0.19 -0.23,0.36 -0.26,0.53l-21.84 56.55c-0.22,0.54 -0.15,0.94 0.18,1.21 0.33,0.27 0.76,0.4 1.27,0.4l11.86 0c1.02,0 1.7,-0.49 2.05,-1.49 0.51,-1.36 1.03,-2.73 1.55,-4.08 0.53,-1.36 1.04,-2.72 1.55,-4.08l1.09 -3.13 2.12 -6.12c-0.58,-1.75 -1.44,-3.74 -2.74,-6.06 -0.38,-0.68 -0.37,-1.51 0.02,-2.18 0.39,-0.66 1.11,-1.08 1.88,-1.08 0.07,0 0.14,0.01 0.21,0.01 0.89,0.09 2.17,0.23 3.68,0.47l0.61 -1.77c0.24,-0.74 0.49,-1.48 0.72,-2.23 0.51,-1.6 1.03,-3.2 1.55,-4.78 0.13,-0.4 0.26,-0.79 0.4,-1.18 0.36,-1.07 1.88,-1.06 2.25,0.01l3.17 9.48 0.81 2.4 0.13 0.38c5.24,1.77 10.5,4.59 13.12,9.09 2.29,3.9 2.31,8.47 0.07,13.57 -0.11,0.27 -0.27,0.5 -0.46,0.72 -0.41,0.52 -1.01,0.87 -1.76,1.01 -0.07,0.02 -0.15,0.01 -0.23,0.02 0.9,0.52 2.05,1.05 3.86,1.03l7.72 0c0.72,0 1.23,-0.17 1.52,-0.5 0.3,-0.33 0.34,-0.77 0.12,-1.31z"/>
   <path class="fil1" d="M741.12 315.49c0,0.25 0.03,0.46 0.1,0.64 0.07,0.18 0.16,0.32 0.27,0.43 0.11,0.11 0.25,0.19 0.4,0.24 0.15,0.05 0.31,0.08 0.47,0.08 0.17,0 0.33,-0.03 0.49,-0.09 0.15,-0.06 0.29,-0.15 0.4,-0.26 0.11,-0.12 0.21,-0.26 0.27,-0.44 0.06,-0.17 0.1,-0.37 0.1,-0.6l0 -4.34c0,-0.06 0.02,-0.11 0.06,-0.15 0.05,-0.05 0.1,-0.07 0.17,-0.07l1.49 0c0.08,0 0.14,0.02 0.18,0.07 0.05,0.05 0.07,0.1 0.07,0.15l0 4.31c0,0.6 -0.09,1.09 -0.26,1.5 -0.17,0.41 -0.41,0.73 -0.7,0.97 -0.3,0.25 -0.64,0.42 -1.03,0.53 -0.39,0.11 -0.8,0.16 -1.23,0.16 -0.43,0 -0.84,-0.05 -1.23,-0.17 -0.39,-0.11 -0.73,-0.29 -1.03,-0.54 -0.3,-0.25 -0.53,-0.58 -0.7,-0.98 -0.18,-0.41 -0.26,-0.9 -0.26,-1.48l0 -4.31c0,-0.06 0.02,-0.11 0.06,-0.15 0.04,-0.05 0.09,-0.07 0.14,-0.07l1.53 0c0.05,0 0.1,0.02 0.16,0.07 0.06,0.04 0.09,0.09 0.09,0.15l0 4.34z"/>
  </g>
  <path class="fil1" d="M153.01 436.15c-2.3,0 -4.53,-0.33 -6.67,-0.98 -2.15,-0.66 -3.84,-1.52 -5.1,-2.61l1.92 -4.31c1.23,0.97 2.73,1.76 4.5,2.37 1.78,0.61 3.56,0.92 5.35,0.92 2.22,0 3.87,-0.36 4.97,-1.07 1.09,-0.71 1.64,-1.65 1.64,-2.82 0,-0.85 -0.3,-1.56 -0.92,-2.11 -0.61,-0.56 -1.39,-0.99 -2.33,-1.3 -0.93,-0.32 -2.22,-0.67 -3.84,-1.07 -2.27,-0.54 -4.11,-1.08 -5.52,-1.62 -1.41,-0.54 -2.62,-1.39 -3.63,-2.54 -1.01,-1.16 -1.51,-2.71 -1.51,-4.67 0,-1.65 0.45,-3.15 1.34,-4.5 0.9,-1.35 2.25,-2.42 4.06,-3.22 1.8,-0.8 4.02,-1.2 6.63,-1.2 1.82,0 3.61,0.23 5.38,0.68 1.76,0.46 3.28,1.11 4.56,1.96l-1.75 4.31c-1.31,-0.77 -2.68,-1.35 -4.1,-1.75 -1.42,-0.4 -2.8,-0.6 -4.14,-0.6 -2.19,0 -3.82,0.37 -4.88,1.11 -1.07,0.74 -1.6,1.72 -1.6,2.94 0,0.85 0.31,1.55 0.92,2.09 0.61,0.54 1.39,0.97 2.33,1.28 0.94,0.31 2.22,0.66 3.84,1.07 2.22,0.51 4.04,1.04 5.46,1.6 1.42,0.56 2.64,1.4 3.65,2.54 1.01,1.14 1.51,2.68 1.51,4.61 0,1.65 -0.45,3.15 -1.34,4.48 -0.9,1.33 -2.26,2.4 -4.07,3.2 -1.82,0.8 -4.04,1.2 -6.66,1.2zm39.96 -5.08l0 4.65 -22.39 0 0 -29.85 21.79 0 0 4.65 -16.25 0 0 7.76 14.42 0 0 4.57 -14.42 0 0 8.23 16.85 0zm19.88 5.08c-3.01,0 -5.74,-0.66 -8.17,-1.98 -2.43,-1.32 -4.34,-3.15 -5.72,-5.48 -1.37,-2.33 -2.07,-4.96 -2.07,-7.89 0,-2.93 0.7,-5.56 2.09,-7.89 1.39,-2.33 3.31,-4.16 5.73,-5.48 2.43,-1.32 5.16,-1.98 8.17,-1.98 2.45,0 4.68,0.43 6.7,1.28 2.02,0.85 3.72,2.09 5.12,3.71l-3.59 3.37c-2.16,-2.33 -4.82,-3.49 -7.97,-3.49 -2.05,0 -3.88,0.45 -5.5,1.34 -1.62,0.9 -2.89,2.14 -3.8,3.74 -0.91,1.59 -1.36,3.4 -1.36,5.42 0,2.02 0.45,3.82 1.36,5.41 0.91,1.59 2.18,2.84 3.8,3.74 1.62,0.89 3.45,1.34 5.5,1.34 3.16,0 5.81,-1.18 7.97,-3.54l3.59 3.41c-1.4,1.62 -3.11,2.86 -5.14,3.71 -2.03,0.85 -4.27,1.28 -6.71,1.28zm36.72 -0.43l-6.1 -8.74c-0.26,0.03 -0.64,0.05 -1.15,0.05l-6.74 0 0 8.7 -5.55 0 0 -29.85 12.29 0c2.58,0 4.84,0.42 6.76,1.28 1.92,0.85 3.39,2.07 4.41,3.67 1.03,1.59 1.54,3.48 1.54,5.68 0,2.25 -0.54,4.18 -1.64,5.8 -1.1,1.62 -2.67,2.83 -4.71,3.63l6.87 9.81 -5.98 0zm-0.13 -19.23c0,-1.91 -0.62,-3.37 -1.88,-4.39 -1.25,-1.03 -3.08,-1.54 -5.5,-1.54l-6.49 0 0 11.9 6.49 0c2.42,0 4.25,-0.52 5.5,-1.56 1.25,-1.04 1.88,-2.51 1.88,-4.41zm34.16 14.59l0 4.65 -22.39 0 0 -29.85 21.79 0 0 4.65 -16.25 0 0 7.76 14.41 0 0 4.57 -14.41 0 0 8.23 16.84 0zm12.24 -20.51l-9.89 0 0 -4.69 25.33 0 0 4.69 -9.89 0 0 25.16 -5.55 0 0 -25.16zm37.5 18.25l-14.93 0 -2.94 6.91 -5.72 0 13.44 -29.85 5.46 0 13.47 29.85 -5.8 0 -2.98 -6.91zm-1.83 -4.35l-5.63 -13.05 -5.59 13.05 11.22 0zm33.95 11.26l-6.1 -8.74c-0.25,0.03 -0.64,0.05 -1.15,0.05l-6.74 0 0 8.7 -5.55 0 0 -29.85 12.28 0c2.59,0 4.84,0.42 6.76,1.28 1.92,0.85 3.39,2.07 4.42,3.67 1.03,1.59 1.54,3.48 1.54,5.68 0,2.25 -0.55,4.18 -1.64,5.8 -1.09,1.62 -2.66,2.83 -4.71,3.63l6.86 9.81 -5.97 0zm-0.13 -19.23c0,-1.91 -0.63,-3.37 -1.88,-4.39 -1.25,-1.03 -3.09,-1.54 -5.5,-1.54l-6.49 0 0 11.9 6.49 0c2.41,0 4.25,-0.52 5.5,-1.56 1.25,-1.04 1.88,-2.51 1.88,-4.41zm11.77 -10.62l5.55 0 0 29.85 -5.55 0 0 -29.85zm4.95 -8.28l6.27 0 -7.42 5.84 -4.61 0 5.76 -5.84zm28.03 31.22l-14.93 0 -2.94 6.91 -5.72 0 13.44 -29.85 5.46 0 13.47 29.85 -5.8 0 -2.98 -6.91zm-1.84 -4.35l-5.63 -13.05 -5.59 13.05 11.22 0zm26.19 -18.6l13.05 0c3.19,0 6.02,0.62 8.49,1.85 2.47,1.24 4.39,2.99 5.76,5.25 1.36,2.26 2.05,4.87 2.05,7.83 0,2.96 -0.68,5.56 -2.05,7.83 -1.36,2.26 -3.28,4.01 -5.76,5.25 -2.47,1.23 -5.3,1.85 -8.49,1.85l-13.05 0 0 -29.85zm12.79 25.16c2.19,0 4.12,-0.42 5.78,-1.25 1.67,-0.84 2.94,-2.03 3.84,-3.59 0.9,-1.55 1.35,-3.35 1.35,-5.39 0,-2.05 -0.45,-3.85 -1.35,-5.4 -0.89,-1.55 -2.17,-2.74 -3.84,-3.59 -1.66,-0.84 -3.59,-1.25 -5.78,-1.25l-7.25 0 0 20.47 7.25 0zm44.83 0.05l0 4.65 -22.39 0 0 -29.85 21.79 0 0 4.65 -16.25 0 0 7.76 14.41 0 0 4.57 -14.41 0 0 8.23 16.84 0zm24.02 -20.51l-9.89 0 0 -4.69 25.33 0 0 4.69 -9.89 0 0 25.16 -5.55 0 0 -25.16zm42.02 20.51l0 4.65 -22.39 0 0 -29.85 21.8 0 0 4.65 -16.25 0 0 7.76 14.41 0 0 4.57 -14.41 0 0 8.23 16.85 0zm19.87 5.08c-3.01,0 -5.73,-0.66 -8.17,-1.98 -2.43,-1.32 -4.33,-3.15 -5.71,-5.48 -1.38,-2.33 -2.07,-4.96 -2.07,-7.89 0,-2.93 0.69,-5.56 2.09,-7.89 1.39,-2.33 3.31,-4.16 5.73,-5.48 2.43,-1.32 5.16,-1.98 8.17,-1.98 2.45,0 4.67,0.43 6.7,1.28 2.02,0.85 3.72,2.09 5.12,3.71l-3.58 3.37c-2.17,-2.33 -4.82,-3.49 -7.98,-3.49 -2.05,0 -3.88,0.45 -5.5,1.34 -1.62,0.9 -2.89,2.14 -3.8,3.74 -0.91,1.59 -1.36,3.4 -1.36,5.42 0,2.02 0.45,3.82 1.36,5.41 0.91,1.59 2.18,2.84 3.8,3.74 1.62,0.89 3.45,1.34 5.5,1.34 3.16,0 5.81,-1.18 7.98,-3.54l3.58 3.41c-1.39,1.62 -3.11,2.86 -5.14,3.71 -2.03,0.85 -4.27,1.28 -6.72,1.28zm43.72 -30.28l0 29.85 -4.57 0 -16.46 -20.22 0 20.22 -5.5 0 0 -29.85 4.56 0 16.46 20.22 0 -20.22 5.51 0zm21.96 30.28c-3.04,0 -5.79,-0.66 -8.23,-1.98 -2.45,-1.32 -4.37,-3.16 -5.76,-5.51 -1.39,-2.34 -2.09,-4.97 -2.09,-7.87 0,-2.9 0.7,-5.53 2.09,-7.87 1.39,-2.35 3.31,-4.18 5.76,-5.51 2.45,-1.32 5.19,-1.98 8.23,-1.98 3.04,0 5.79,0.66 8.23,1.98 2.45,1.32 4.37,3.15 5.76,5.48 1.39,2.33 2.09,4.96 2.09,7.89 0,2.93 -0.7,5.56 -2.09,7.89 -1.39,2.33 -3.31,4.16 -5.76,5.48 -2.45,1.32 -5.19,1.98 -8.23,1.98zm0 -4.86c1.99,0 3.78,-0.45 5.37,-1.34 1.59,-0.9 2.84,-2.15 3.75,-3.76 0.91,-1.6 1.36,-3.4 1.36,-5.39 0,-1.99 -0.45,-3.79 -1.36,-5.4 -0.91,-1.61 -2.16,-2.86 -3.75,-3.76 -1.59,-0.89 -3.39,-1.34 -5.37,-1.34 -1.99,0 -3.78,0.45 -5.37,1.34 -1.59,0.9 -2.85,2.15 -3.75,3.76 -0.91,1.6 -1.37,3.4 -1.37,5.4 0,1.99 0.46,3.79 1.37,5.39 0.91,1.61 2.16,2.86 3.75,3.76 1.59,0.89 3.38,1.34 5.37,1.34zm21.96 -25.42l5.55 0 0 25.16 15.61 0 0 4.69 -21.16 0 0 -29.85zm38.94 30.28c-3.04,0 -5.79,-0.66 -8.23,-1.98 -2.45,-1.32 -4.37,-3.16 -5.76,-5.51 -1.4,-2.34 -2.09,-4.97 -2.09,-7.87 0,-2.9 0.69,-5.53 2.09,-7.87 1.39,-2.35 3.31,-4.18 5.76,-5.51 2.45,-1.32 5.19,-1.98 8.23,-1.98 3.04,0 5.79,0.66 8.23,1.98 2.45,1.32 4.37,3.15 5.76,5.48 1.39,2.33 2.09,4.96 2.09,7.89 0,2.93 -0.7,5.56 -2.09,7.89 -1.39,2.33 -3.31,4.16 -5.76,5.48 -2.45,1.32 -5.19,1.98 -8.23,1.98zm0 -4.86c1.99,0 3.78,-0.45 5.37,-1.34 1.59,-0.9 2.84,-2.15 3.75,-3.76 0.91,-1.6 1.36,-3.4 1.36,-5.39 0,-1.99 -0.45,-3.79 -1.36,-5.4 -0.91,-1.61 -2.16,-2.86 -3.75,-3.76 -1.59,-0.89 -3.39,-1.34 -5.37,-1.34 -1.99,0 -3.78,0.45 -5.37,1.34 -1.59,0.9 -2.85,2.15 -3.76,3.76 -0.91,1.6 -1.36,3.4 -1.36,5.4 0,1.99 0.46,3.79 1.36,5.39 0.91,1.61 2.17,2.86 3.76,3.76 1.59,0.89 3.38,1.34 5.37,1.34zm42.35 -10.83l5.25 0 0 11.9c-1.54,1.23 -3.33,2.16 -5.37,2.82 -2.05,0.65 -4.15,0.98 -6.31,0.98 -3.04,0 -5.79,-0.66 -8.23,-1.98 -2.45,-1.32 -4.37,-3.15 -5.76,-5.48 -1.4,-2.33 -2.09,-4.96 -2.09,-7.89 0,-2.93 0.69,-5.56 2.09,-7.89 1.39,-2.33 3.32,-4.16 5.77,-5.48 2.46,-1.32 5.22,-1.98 8.3,-1.98 2.5,0 4.77,0.41 6.82,1.24 2.05,0.82 3.76,2.03 5.16,3.63l-3.5 3.41c-2.27,-2.28 -5.02,-3.41 -8.23,-3.41 -2.1,0 -3.97,0.44 -5.61,1.32 -1.63,0.88 -2.92,2.11 -3.84,3.71 -0.92,1.59 -1.39,3.41 -1.39,5.47 0,1.99 0.46,3.78 1.39,5.37 0.92,1.59 2.21,2.84 3.84,3.75 1.64,0.91 3.49,1.36 5.57,1.36 2.33,0 4.38,-0.51 6.14,-1.54l0 -9.3zm12.54 -14.59l5.55 0 0 29.85 -5.55 0 0 -29.85zm4.94 -8.28l6.27 0 -7.42 5.84 -4.61 0 5.76 -5.84zm28.03 31.22l-14.93 0 -2.94 6.91 -5.71 0 13.43 -29.85 5.46 0 13.48 29.85 -5.8 0 -2.98 -6.91zm-1.83 -4.35l-5.63 -13.05 -5.59 13.05 11.22 0zm23.67 11.69c-2.3,0 -4.53,-0.33 -6.67,-0.98 -2.15,-0.66 -3.85,-1.52 -5.1,-2.61l1.92 -4.31c1.23,0.97 2.72,1.76 4.5,2.37 1.78,0.61 3.56,0.92 5.35,0.92 2.22,0 3.87,-0.36 4.97,-1.07 1.09,-0.71 1.64,-1.65 1.64,-2.82 0,-0.85 -0.3,-1.56 -0.92,-2.11 -0.61,-0.56 -1.39,-0.99 -2.33,-1.3 -0.94,-0.32 -2.22,-0.67 -3.84,-1.07 -2.27,-0.54 -4.11,-1.08 -5.52,-1.62 -1.41,-0.54 -2.62,-1.39 -3.63,-2.54 -1.01,-1.16 -1.51,-2.71 -1.51,-4.67 0,-1.65 0.45,-3.15 1.34,-4.5 0.9,-1.35 2.25,-2.42 4.06,-3.22 1.8,-0.8 4.02,-1.2 6.63,-1.2 1.82,0 3.61,0.23 5.37,0.68 1.76,0.46 3.29,1.11 4.57,1.96l-1.75 4.31c-1.31,-0.77 -2.68,-1.35 -4.1,-1.75 -1.42,-0.4 -2.8,-0.6 -4.14,-0.6 -2.19,0 -3.82,0.37 -4.89,1.11 -1.07,0.74 -1.6,1.72 -1.6,2.94 0,0.85 0.31,1.55 0.92,2.09 0.61,0.54 1.39,0.97 2.33,1.28 0.94,0.31 2.22,0.66 3.84,1.07 2.22,0.51 4.04,1.04 5.46,1.6 1.42,0.56 2.64,1.4 3.65,2.54 1.01,1.14 1.51,2.68 1.51,4.61 0,1.65 -0.45,3.15 -1.35,4.48 -0.89,1.33 -2.25,2.4 -4.07,3.2 -1.82,0.8 -4.03,1.2 -6.65,1.2zm-800.16 17.51l13.05 0c3.19,0 6.02,0.62 8.49,1.86 2.47,1.24 4.39,2.98 5.76,5.24 1.36,2.26 2.05,4.87 2.05,7.83 0,2.96 -0.68,5.56 -2.05,7.83 -1.36,2.26 -3.28,4.01 -5.76,5.25 -2.47,1.24 -5.3,1.86 -8.49,1.86l-13.05 0 0 -29.86zm12.8 25.17c2.19,0 4.11,-0.42 5.77,-1.26 1.67,-0.84 2.94,-2.03 3.84,-3.58 0.9,-1.55 1.35,-3.35 1.35,-5.4 0,-2.05 -0.45,-3.85 -1.35,-5.4 -0.89,-1.55 -2.17,-2.74 -3.84,-3.59 -1.66,-0.84 -3.59,-1.25 -5.77,-1.25l-7.25 0 0 20.47 7.25 0zm44.83 0.04l0 4.65 -22.39 0 0 -29.86 21.79 0 0 4.65 -16.25 0 0 7.76 14.41 0 0 4.57 -14.41 0 0 8.23 16.85 0zm17.95 -25.21l5.55 0 0 25.17 15.61 0 0 4.69 -21.16 0 0 -29.86zm45.13 22.94l-14.93 0 -2.94 6.91 -5.72 0 13.43 -29.86 5.46 0 13.48 29.86 -5.8 0 -2.98 -6.91zm-1.83 -4.35l-5.63 -13.05 -5.59 13.05 11.22 0zm26.19 -18.6l5.55 0 0 29.86 -5.55 0 0 -29.86zm40.14 0l0 29.86 -4.56 0 -16.46 -20.22 0 20.22 -5.51 0 0 -29.86 4.57 0 16.46 20.22 0 -20.22 5.5 0zm13.57 4.65l0 9.09 14.41 0 0 4.69 -14.41 0 0 11.43 -5.55 0 0 -29.86 21.79 0 0 4.65 -16.25 0zm35.23 25.64c-3.04,0 -5.79,-0.66 -8.23,-1.98 -2.45,-1.32 -4.37,-3.16 -5.76,-5.51 -1.4,-2.34 -2.09,-4.97 -2.09,-7.87 0,-2.9 0.69,-5.53 2.09,-7.87 1.39,-2.35 3.31,-4.18 5.76,-5.5 2.45,-1.32 5.19,-1.99 8.23,-1.99 3.04,0 5.79,0.66 8.23,1.99 2.44,1.32 4.36,3.15 5.76,5.48 1.39,2.33 2.09,4.96 2.09,7.89 0,2.93 -0.69,5.56 -2.09,7.89 -1.4,2.33 -3.32,4.16 -5.76,5.48 -2.45,1.32 -5.19,1.98 -8.23,1.98zm0 -4.86c1.99,0 3.78,-0.45 5.37,-1.34 1.59,-0.9 2.84,-2.15 3.75,-3.75 0.91,-1.61 1.36,-3.41 1.36,-5.4 0,-1.99 -0.45,-3.79 -1.36,-5.4 -0.91,-1.61 -2.16,-2.86 -3.75,-3.75 -1.59,-0.9 -3.39,-1.35 -5.37,-1.35 -1.99,0 -3.78,0.45 -5.37,1.35 -1.59,0.89 -2.85,2.14 -3.76,3.75 -0.91,1.6 -1.36,3.4 -1.36,5.4 0,1.99 0.46,3.79 1.36,5.4 0.91,1.6 2.17,2.85 3.76,3.75 1.59,0.89 3.38,1.34 5.37,1.34zm41.5 4.44l-6.1 -8.75c-0.25,0.03 -0.64,0.05 -1.15,0.05l-6.74 0 0 8.7 -5.55 0 0 -29.86 12.28 0c2.59,0 4.84,0.42 6.76,1.28 1.92,0.85 3.39,2.07 4.42,3.67 1.03,1.59 1.54,3.48 1.54,5.68 0,2.25 -0.55,4.18 -1.64,5.8 -1.09,1.62 -2.66,2.83 -4.71,3.63l6.86 9.81 -5.97 0zm-0.13 -19.24c0,-1.91 -0.63,-3.37 -1.88,-4.39 -1.25,-1.03 -3.09,-1.54 -5.5,-1.54l-6.49 0 0 11.9 6.49 0c2.41,0 4.25,-0.52 5.5,-1.56 1.25,-1.04 1.88,-2.51 1.88,-4.41zm39.2 19.24l-0.05 -19.79 -9.81 16.38 -2.47 0 -9.81 -16.12 0 19.54 -5.29 0 0 -29.86 4.57 0 11.86 19.79 11.64 -19.79 4.57 0 0.04 29.86 -5.24 0zm32.67 -6.91l-14.93 0 -2.94 6.91 -5.71 0 13.43 -29.86 5.46 0 13.48 29.86 -5.8 0 -2.98 -6.91zm-1.83 -4.35l-5.63 -13.05 -5.59 13.05 11.22 0zm27.81 11.69c-3.01,0 -5.73,-0.66 -8.17,-1.98 -2.43,-1.32 -4.34,-3.15 -5.71,-5.48 -1.38,-2.33 -2.07,-4.96 -2.07,-7.89 0,-2.93 0.7,-5.56 2.09,-7.89 1.39,-2.33 3.31,-4.16 5.74,-5.48 2.43,-1.32 5.15,-1.99 8.16,-1.99 2.45,0 4.68,0.43 6.7,1.28 2.02,0.85 3.73,2.09 5.12,3.71l-3.59 3.37c-2.16,-2.33 -4.82,-3.5 -7.97,-3.5 -2.05,0 -3.88,0.45 -5.5,1.35 -1.62,0.89 -2.89,2.14 -3.8,3.73 -0.91,1.59 -1.36,3.4 -1.36,5.42 0,2.02 0.45,3.82 1.36,5.41 0.91,1.59 2.18,2.84 3.8,3.74 1.62,0.89 3.45,1.34 5.5,1.34 3.16,0 5.81,-1.18 7.97,-3.54l3.59 3.41c-1.39,1.62 -3.11,2.86 -5.14,3.71 -2.03,0.85 -4.27,1.28 -6.72,1.28zm17.19 -30.28l5.55 0 0 29.86 -5.55 0 0 -29.86zm27.56 30.28c-3.04,0 -5.79,-0.66 -8.23,-1.98 -2.45,-1.32 -4.37,-3.16 -5.76,-5.51 -1.39,-2.34 -2.09,-4.97 -2.09,-7.87 0,-2.9 0.7,-5.53 2.09,-7.87 1.39,-2.35 3.31,-4.18 5.76,-5.5 2.45,-1.32 5.19,-1.99 8.23,-1.99 3.04,0 5.79,0.66 8.23,1.99 2.45,1.32 4.37,3.15 5.76,5.48 1.39,2.33 2.09,4.96 2.09,7.89 0,2.93 -0.7,5.56 -2.09,7.89 -1.39,2.33 -3.31,4.16 -5.76,5.48 -2.45,1.32 -5.19,1.98 -8.23,1.98zm0 -4.86c1.99,0 3.78,-0.45 5.37,-1.34 1.59,-0.9 2.85,-2.15 3.75,-3.75 0.91,-1.61 1.37,-3.41 1.37,-5.4 0,-1.99 -0.46,-3.79 -1.37,-5.4 -0.91,-1.61 -2.16,-2.86 -3.75,-3.75 -1.59,-0.9 -3.39,-1.35 -5.37,-1.35 -1.99,0 -3.78,0.45 -5.37,1.35 -1.59,0.89 -2.84,2.14 -3.75,3.75 -0.91,1.6 -1.36,3.4 -1.36,5.4 0,1.99 0.45,3.79 1.36,5.4 0.91,1.6 2.16,2.85 3.75,3.75 1.59,0.89 3.39,1.34 5.37,1.34zm2.18 -33.7l6.27 0 -7.42 5.84 -4.61 0 5.76 -5.84zm46.32 8.28l0 29.86 -4.56 0 -16.46 -20.22 0 20.22 -5.51 0 0 -29.86 4.57 0 16.46 20.22 0 -20.22 5.5 0zm32.67 19.32l0 10.54 -5.55 0 0 -10.46 -11.73 -19.4 5.93 0 8.74 14.55 8.83 -14.55 5.46 0 -11.69 19.32zm40.9 10.96c-3.01,0 -5.73,-0.66 -8.16,-1.98 -2.43,-1.32 -4.34,-3.15 -5.72,-5.48 -1.38,-2.33 -2.07,-4.96 -2.07,-7.89 0,-2.93 0.7,-5.56 2.09,-7.89 1.39,-2.33 3.31,-4.16 5.73,-5.48 2.43,-1.32 5.16,-1.99 8.17,-1.99 2.45,0 4.67,0.43 6.7,1.28 2.02,0.85 3.72,2.09 5.12,3.71l-3.58 3.37c-2.16,-2.33 -4.82,-3.5 -7.97,-3.5 -2.05,0 -3.88,0.45 -5.51,1.35 -1.62,0.89 -2.89,2.14 -3.79,3.73 -0.91,1.59 -1.37,3.4 -1.37,5.42 0,2.02 0.46,3.82 1.37,5.41 0.91,1.59 2.17,2.84 3.79,3.74 1.62,0.89 3.45,1.34 5.51,1.34 3.16,0 5.81,-1.18 7.97,-3.54l3.58 3.41c-1.39,1.62 -3.11,2.86 -5.14,3.71 -2.03,0.85 -4.27,1.28 -6.72,1.28zm30.5 0c-3.04,0 -5.79,-0.66 -8.23,-1.98 -2.45,-1.32 -4.37,-3.16 -5.76,-5.51 -1.39,-2.34 -2.09,-4.97 -2.09,-7.87 0,-2.9 0.7,-5.53 2.09,-7.87 1.39,-2.35 3.31,-4.18 5.76,-5.5 2.45,-1.32 5.19,-1.99 8.23,-1.99 3.04,0 5.79,0.66 8.23,1.99 2.45,1.32 4.37,3.15 5.76,5.48 1.39,2.33 2.09,4.96 2.09,7.89 0,2.93 -0.7,5.56 -2.09,7.89 -1.39,2.33 -3.31,4.16 -5.76,5.48 -2.45,1.32 -5.19,1.98 -8.23,1.98zm0 -4.86c1.99,0 3.78,-0.45 5.37,-1.34 1.59,-0.9 2.84,-2.15 3.75,-3.75 0.91,-1.61 1.36,-3.41 1.36,-5.4 0,-1.99 -0.45,-3.79 -1.36,-5.4 -0.91,-1.61 -2.16,-2.86 -3.75,-3.75 -1.59,-0.9 -3.39,-1.35 -5.37,-1.35 -1.99,0 -3.78,0.45 -5.37,1.35 -1.59,0.89 -2.85,2.14 -3.76,3.75 -0.91,1.6 -1.36,3.4 -1.36,5.4 0,1.99 0.46,3.79 1.36,5.4 0.91,1.6 2.17,2.85 3.76,3.75 1.59,0.89 3.38,1.34 5.37,1.34zm49.39 4.44l-0.04 -19.79 -9.81 16.38 -2.47 0 -9.81 -16.12 0 19.54 -5.29 0 0 -29.86 4.57 0 11.86 19.79 11.64 -19.79 4.57 0 0.04 29.86 -5.25 0zm26.15 0.42c-4.12,0 -7.33,-1.16 -9.64,-3.48 -2.3,-2.31 -3.45,-5.64 -3.45,-9.96l0 -16.85 5.55 0 0 16.64c0,5.85 2.53,8.78 7.59,8.78 5.03,0 7.55,-2.93 7.55,-8.78l0 -16.64 5.46 0 0 16.85c0,4.32 -1.15,7.64 -3.44,9.96 -2.29,2.32 -5.49,3.48 -9.62,3.48zm47.35 -30.28l0 29.86 -4.57 0 -16.46 -20.22 0 20.22 -5.5 0 0 -29.86 4.56 0 16.46 20.22 0 -20.22 5.51 0zm8.01 0l5.55 0 0 29.86 -5.55 0 0 -29.86zm27.43 30.28c-3.02,0 -5.74,-0.66 -8.17,-1.98 -2.43,-1.32 -4.34,-3.15 -5.72,-5.48 -1.38,-2.33 -2.07,-4.96 -2.07,-7.89 0,-2.93 0.7,-5.56 2.09,-7.89 1.39,-2.33 3.31,-4.16 5.73,-5.48 2.43,-1.32 5.16,-1.99 8.17,-1.99 2.45,0 4.68,0.43 6.7,1.28 2.02,0.85 3.72,2.09 5.12,3.71l-3.58 3.37c-2.16,-2.33 -4.82,-3.5 -7.97,-3.5 -2.05,0 -3.88,0.45 -5.51,1.35 -1.62,0.89 -2.89,2.14 -3.79,3.73 -0.91,1.59 -1.37,3.4 -1.37,5.42 0,2.02 0.46,3.82 1.37,5.41 0.91,1.59 2.17,2.84 3.79,3.74 1.62,0.89 3.45,1.34 5.51,1.34 3.16,0 5.81,-1.18 7.97,-3.54l3.58 3.41c-1.39,1.62 -3.11,2.86 -5.14,3.71 -2.03,0.85 -4.27,1.28 -6.71,1.28zm35.91 -7.34l-14.92 0 -2.94 6.91 -5.72 0 13.43 -29.86 5.46 0 13.48 29.86 -5.8 0 -2.99 -6.91zm-1.83 -4.35l-5.63 -13.05 -5.59 13.05 11.22 0zm27.81 11.69c-3.02,0 -5.74,-0.66 -8.17,-1.98 -2.43,-1.32 -4.34,-3.15 -5.72,-5.48 -1.38,-2.33 -2.07,-4.96 -2.07,-7.89 0,-2.93 0.7,-5.56 2.09,-7.89 1.39,-2.33 3.31,-4.16 5.73,-5.48 2.43,-1.32 5.16,-1.99 8.17,-1.99 2.45,0 4.68,0.43 6.7,1.28 2.02,0.85 3.72,2.09 5.12,3.71l-3.58 3.37c-2.16,-2.33 -4.82,-3.5 -7.97,-3.5 -2.05,0 -3.88,0.45 -5.51,1.35 -1.62,0.89 -2.88,2.14 -3.79,3.73 -0.91,1.59 -1.37,3.4 -1.37,5.42 0,2.02 0.46,3.82 1.37,5.41 0.91,1.59 2.17,2.84 3.79,3.74 1.62,0.89 3.45,1.34 5.51,1.34 3.16,0 5.81,-1.18 7.97,-3.54l3.58 3.41c-1.39,1.62 -3.11,2.86 -5.14,3.71 -2.03,0.85 -4.27,1.28 -6.71,1.28zm17.19 -30.28l5.55 0 0 29.86 -5.55 0 0 -29.86zm27.56 30.28c-3.04,0 -5.79,-0.66 -8.23,-1.98 -2.45,-1.32 -4.37,-3.16 -5.76,-5.51 -1.4,-2.34 -2.09,-4.97 -2.09,-7.87 0,-2.9 0.69,-5.53 2.09,-7.87 1.39,-2.35 3.31,-4.18 5.76,-5.5 2.45,-1.32 5.19,-1.99 8.23,-1.99 3.04,0 5.79,0.66 8.23,1.99 2.44,1.32 4.37,3.15 5.76,5.48 1.39,2.33 2.09,4.96 2.09,7.89 0,2.93 -0.7,5.56 -2.09,7.89 -1.39,2.33 -3.32,4.16 -5.76,5.48 -2.45,1.32 -5.19,1.98 -8.23,1.98zm0 -4.86c1.99,0 3.78,-0.45 5.37,-1.34 1.59,-0.9 2.84,-2.15 3.75,-3.75 0.91,-1.61 1.36,-3.41 1.36,-5.4 0,-1.99 -0.45,-3.79 -1.36,-5.4 -0.91,-1.61 -2.16,-2.86 -3.75,-3.75 -1.59,-0.9 -3.39,-1.35 -5.37,-1.35 -1.99,0 -3.78,0.45 -5.37,1.35 -1.59,0.89 -2.85,2.14 -3.76,3.75 -0.91,1.6 -1.36,3.4 -1.36,5.4 0,1.99 0.46,3.79 1.36,5.4 0.91,1.6 2.17,2.85 3.76,3.75 1.59,0.89 3.38,1.34 5.37,1.34zm48.49 -25.42l0 29.86 -4.57 0 -16.46 -20.22 0 20.22 -5.5 0 0 -29.86 4.57 0 16.46 20.22 0 -20.22 5.5 0zm30.41 25.21l0 4.65 -22.39 0 0 -29.86 21.79 0 0 4.65 -16.25 0 0 7.76 14.41 0 0 4.57 -14.41 0 0 8.23 16.84 0zm15.44 5.08c-2.31,0 -4.53,-0.33 -6.68,-0.98 -2.14,-0.65 -3.84,-1.52 -5.09,-2.6l1.92 -4.31c1.22,0.96 2.72,1.75 4.5,2.37 1.78,0.61 3.56,0.92 5.36,0.92 2.22,0 3.87,-0.36 4.97,-1.07 1.09,-0.71 1.64,-1.65 1.64,-2.82 0,-0.85 -0.31,-1.55 -0.92,-2.11 -0.61,-0.56 -1.39,-0.99 -2.32,-1.3 -0.94,-0.32 -2.22,-0.67 -3.84,-1.07 -2.27,-0.54 -4.12,-1.08 -5.53,-1.62 -1.4,-0.54 -2.61,-1.39 -3.62,-2.54 -1.01,-1.15 -1.52,-2.71 -1.52,-4.67 0,-1.64 0.45,-3.15 1.35,-4.5 0.89,-1.35 2.25,-2.42 4.05,-3.22 1.8,-0.8 4.02,-1.2 6.63,-1.2 1.82,0 3.61,0.23 5.37,0.68 1.76,0.46 3.28,1.11 4.57,1.96l-1.75 4.31c-1.31,-0.77 -2.67,-1.35 -4.09,-1.75 -1.43,-0.4 -2.8,-0.6 -4.14,-0.6 -2.19,0 -3.82,0.37 -4.88,1.11 -1.07,0.74 -1.6,1.72 -1.6,2.94 0,0.85 0.3,1.55 0.92,2.09 0.61,0.54 1.39,0.96 2.33,1.28 0.93,0.32 2.22,0.67 3.84,1.07 2.22,0.51 4.03,1.04 5.46,1.6 1.42,0.56 2.64,1.4 3.64,2.54 1.01,1.14 1.52,2.68 1.52,4.61 0,1.65 -0.45,3.15 -1.35,4.48 -0.89,1.33 -2.25,2.41 -4.07,3.2 -1.82,0.8 -4.04,1.19 -6.65,1.19z"/>
 </g>
</svg>
